<svg xmlns="http://www.w3.org/2000/svg" xmlns:xlink="http://www.w3.org/1999/xlink" width="686" zoomAndPan="magnify" viewBox="0 0 514.5 175.5" height="234" preserveAspectRatio="xMidYMid meet" version="1.0"><defs><g/><clipPath id="29f6517ead"><path d="M 80.359375 5.238281 L 102.453125 5.238281 L 102.453125 27.328125 L 80.359375 27.328125 Z M 80.359375 5.238281 " clip-rule="nonzero"/></clipPath><clipPath id="00b5f003fd"><path d="M 91.40625 5.238281 C 85.304688 5.238281 80.359375 10.183594 80.359375 16.285156 C 80.359375 22.382812 85.304688 27.328125 91.40625 27.328125 C 97.507812 27.328125 102.453125 22.382812 102.453125 16.285156 C 102.453125 10.183594 97.507812 5.238281 91.40625 5.238281 Z M 91.40625 5.238281 " clip-rule="nonzero"/></clipPath><clipPath id="ed3a981647"><path d="M 11.699219 27.328125 L 91.722656 27.328125 L 91.722656 107.351562 L 11.699219 107.351562 Z M 11.699219 27.328125 " clip-rule="nonzero"/></clipPath><clipPath id="369e550747"><path d="M 24.722656 118.300781 L 100.257812 118.300781 L 100.257812 168.40625 L 24.722656 168.40625 Z M 24.722656 118.300781 " clip-rule="nonzero"/></clipPath></defs><g fill="#737373" fill-opacity="1"><g transform="translate(106.826101, 156.926866)"><g><path d="M 24.546875 -28.03125 C 24.546875 -23.613281 25.441406 -20.503906 27.234375 -18.703125 C 29.035156 -16.910156 31.445312 -16.015625 34.46875 -16.015625 C 37.476562 -16.015625 39.882812 -16.910156 41.6875 -18.703125 C 43.488281 -20.503906 44.390625 -23.613281 44.390625 -28.03125 L 44.390625 -93.8125 C 44.390625 -98.226562 43.488281 -101.332031 41.6875 -103.125 C 39.882812 -104.925781 37.476562 -105.828125 34.46875 -105.828125 C 31.445312 -105.828125 29.035156 -104.925781 27.234375 -103.125 C 25.441406 -101.332031 24.546875 -98.226562 24.546875 -93.8125 Z M 5.390625 -92.59375 C 5.390625 -102.457031 7.882812 -110.03125 12.875 -115.3125 C 17.863281 -120.59375 25.0625 -123.234375 34.46875 -123.234375 C 43.863281 -123.234375 51.054688 -120.59375 56.046875 -115.3125 C 61.035156 -110.03125 63.53125 -102.457031 63.53125 -92.59375 L 63.53125 -29.25 C 63.53125 -19.382812 61.035156 -11.8125 56.046875 -6.53125 C 51.054688 -1.25 43.863281 1.390625 34.46875 1.390625 C 25.0625 1.390625 17.863281 -1.25 12.875 -6.53125 C 7.882812 -11.8125 5.390625 -19.382812 5.390625 -29.25 Z M 5.390625 -92.59375 "/></g></g></g><g clip-path="url(#29f6517ead)"><g clip-path="url(#00b5f003fd)"><path fill="#ff5f00" d="M 80.359375 5.238281 L 102.453125 5.238281 L 102.453125 27.328125 L 80.359375 27.328125 Z M 80.359375 5.238281 " fill-opacity="1" fill-rule="nonzero"/></g></g><g clip-path="url(#ed3a981647)"><path fill="#ff5f00" d="M 51.554688 107.035156 C 29.578125 107.035156 11.699219 89.15625 11.699219 67.183594 C 11.699219 45.207031 29.578125 27.328125 51.554688 27.328125 C 73.527344 27.328125 91.40625 45.207031 91.40625 67.183594 C 91.40625 89.15625 73.527344 107.035156 51.554688 107.035156 Z M 51.554688 44.335938 C 38.957031 44.335938 28.707031 54.585938 28.707031 67.183594 C 28.707031 79.78125 38.957031 90.027344 51.554688 90.027344 C 64.148438 90.027344 74.398438 79.78125 74.398438 67.183594 C 74.398438 54.585938 64.148438 44.335938 51.554688 44.335938 Z M 51.554688 44.335938 " fill-opacity="1" fill-rule="nonzero"/></g><g clip-path="url(#369e550747)"><path fill="#ff5f00" d="M 24.75 119.800781 L 24.75 131.53125 C 24.75 132.457031 25.5 133.210938 26.425781 133.210938 L 76.355469 133.210938 C 81.796875 133.210938 86.542969 137.375 86.753906 142.8125 C 86.980469 148.570312 82.414062 153.324219 76.707031 153.324219 C 75.785156 153.324219 75.03125 154.074219 75.03125 155 L 75.03125 166.730469 C 75.03125 167.667969 75.804688 168.410156 76.742188 168.40625 C 89.664062 168.386719 100.171875 157.117188 100.171875 143.265625 C 100.171875 129.402344 89.648438 118.125 76.707031 118.125 L 26.425781 118.125 C 25.5 118.125 24.75 118.875 24.75 119.800781 Z M 24.75 119.800781 " fill-opacity="1" fill-rule="nonzero"/></g><g fill="#737373" fill-opacity="1"><g transform="translate(202.630282, 132.575096)"><g><path d="M 3.34375 -75.53125 L 23.296875 -75.53125 C 29.335938 -75.53125 33.644531 -73.578125 36.21875 -69.671875 C 38.800781 -65.773438 40.09375 -60.078125 40.09375 -52.578125 C 40.09375 -45.078125 38.945312 -39.421875 36.65625 -35.609375 C 34.375 -31.796875 30.273438 -29.890625 24.359375 -29.890625 L 18.203125 -29.890625 L 18.203125 0 L 3.34375 0 Z M 19.078125 -43.515625 C 20.890625 -43.515625 22.222656 -43.851562 23.078125 -44.53125 C 23.929688 -45.207031 24.488281 -46.175781 24.75 -47.4375 C 25.007812 -48.695312 25.140625 -50.5 25.140625 -52.84375 C 25.140625 -56.007812 24.785156 -58.296875 24.078125 -59.703125 C 23.378906 -61.109375 21.976562 -61.8125 19.875 -61.8125 L 18.203125 -61.8125 L 18.203125 -43.515625 Z M 19.078125 -43.515625 "/></g></g></g><g fill="#737373" fill-opacity="1"><g transform="translate(244.129152, 132.575096)"><g><path d="M 3.078125 -64.359375 L 18.46875 -64.359375 L 18.46875 -57.234375 C 19.226562 -59.753906 20.5625 -61.703125 22.46875 -63.078125 C 24.375 -64.460938 26.734375 -65.15625 29.546875 -65.15625 L 29.546875 -52.3125 C 27.367188 -52.3125 24.976562 -52.003906 22.375 -51.390625 C 19.769531 -50.773438 18.46875 -50.054688 18.46875 -49.234375 L 18.46875 0 L 3.078125 0 Z M 3.078125 -64.359375 "/></g></g></g><g fill="#737373" fill-opacity="1"><g transform="translate(274.374094, 132.575096)"><g><path d="M 21.796875 0.703125 C 8.960938 0.703125 2.546875 -5.945312 2.546875 -19.25 L 2.546875 -45.109375 C 2.546875 -51.203125 4.257812 -56.050781 7.6875 -59.65625 C 11.125 -63.257812 15.828125 -65.0625 21.796875 -65.0625 C 27.773438 -65.0625 32.476562 -63.257812 35.90625 -59.65625 C 39.34375 -56.050781 41.0625 -51.203125 41.0625 -45.109375 L 41.0625 -19.25 C 41.0625 -5.945312 34.640625 0.703125 21.796875 0.703125 Z M 21.796875 -11.171875 C 23.035156 -11.171875 23.945312 -11.609375 24.53125 -12.484375 C 25.113281 -13.359375 25.40625 -14.5625 25.40625 -16.09375 L 25.40625 -47.5625 C 25.40625 -51.3125 24.203125 -53.1875 21.796875 -53.1875 C 19.398438 -53.1875 18.203125 -51.3125 18.203125 -47.5625 L 18.203125 -16.09375 C 18.203125 -14.5625 18.492188 -13.359375 19.078125 -12.484375 C 19.660156 -11.609375 20.566406 -11.171875 21.796875 -11.171875 Z M 21.796875 -11.171875 "/></g></g></g><g fill="#737373" fill-opacity="1"><g transform="translate(318.070959, 132.575096)"><g><path d="M 4.75 -68.671875 L 4.75 -79.390625 L 20.140625 -79.390625 L 20.140625 -68.671875 Z M 8 7.5625 C 4.65625 7.5625 2.488281 7.179688 1.5 6.421875 L 1.5 -3.875 C 1.789062 -3.75 2.257812 -3.6875 2.90625 -3.6875 C 3.664062 -3.6875 4.160156 -3.9375 4.390625 -4.4375 C 4.628906 -4.9375 4.75 -5.6875 4.75 -6.6875 L 4.75 -64.359375 L 20.140625 -64.359375 L 20.140625 -7.125 C 20.140625 -2.375 19.171875 1.257812 17.234375 3.78125 C 15.296875 6.300781 12.21875 7.5625 8 7.5625 Z M 8 7.5625 "/></g></g></g><g fill="#737373" fill-opacity="1"><g transform="translate(341.194261, 132.575096)"><g><path d="M 21.09375 0.703125 C 14.476562 0.703125 9.734375 -1.113281 6.859375 -4.75 C 3.984375 -8.382812 2.546875 -13.804688 2.546875 -21.015625 L 2.546875 -46.859375 C 2.546875 -52.785156 4.242188 -57.300781 7.640625 -60.40625 C 11.046875 -63.507812 15.796875 -65.0625 21.890625 -65.0625 C 34.253906 -65.0625 40.4375 -58.992188 40.4375 -46.859375 L 40.4375 -42.203125 C 40.4375 -37.515625 40.378906 -33.703125 40.265625 -30.765625 L 17.9375 -30.765625 L 17.9375 -18.28125 C 17.9375 -16.0625 18.171875 -14.320312 18.640625 -13.0625 C 19.109375 -11.800781 20.101562 -11.171875 21.625 -11.171875 C 22.800781 -11.171875 23.632812 -11.519531 24.125 -12.21875 C 24.625 -12.925781 24.914062 -13.734375 25 -14.640625 C 25.09375 -15.546875 25.140625 -16.878906 25.140625 -18.640625 L 25.140625 -24.875 L 40.4375 -24.875 L 40.4375 -21.1875 C 40.4375 -13.6875 38.984375 -8.160156 36.078125 -4.609375 C 33.179688 -1.066406 28.1875 0.703125 21.09375 0.703125 Z M 25.140625 -38.421875 L 25.140625 -46.6875 C 25.140625 -51.3125 24 -53.625 21.71875 -53.625 C 19.132812 -53.625 17.84375 -51.3125 17.84375 -46.6875 L 17.84375 -38.421875 Z M 25.140625 -38.421875 "/></g></g></g><g fill="#737373" fill-opacity="1"><g transform="translate(384.099851, 132.575096)"><g><path d="M 22.421875 0.703125 C 15.390625 0.703125 10.316406 -1.082031 7.203125 -4.65625 C 4.097656 -8.226562 2.546875 -13.707031 2.546875 -21.09375 L 2.546875 -40.96875 C 2.546875 -46.539062 3.144531 -51.066406 4.34375 -54.546875 C 5.550781 -58.035156 7.578125 -60.660156 10.421875 -62.421875 C 13.265625 -64.179688 17.207031 -65.0625 22.25 -65.0625 C 27.757812 -65.0625 32.242188 -63.625 35.703125 -60.75 C 39.160156 -57.882812 40.890625 -53.867188 40.890625 -48.703125 L 40.890625 -38.859375 L 25.234375 -38.859375 L 25.234375 -47.921875 C 25.234375 -49.617188 25 -50.921875 24.53125 -51.828125 C 24.0625 -52.734375 23.148438 -53.1875 21.796875 -53.1875 C 19.285156 -53.1875 18.03125 -51.398438 18.03125 -47.828125 L 18.03125 -16.625 C 18.03125 -15.15625 18.335938 -13.90625 18.953125 -12.875 C 19.566406 -11.851562 20.488281 -11.34375 21.71875 -11.34375 C 22.945312 -11.34375 23.867188 -11.835938 24.484375 -12.828125 C 25.097656 -13.828125 25.378906 -15.117188 25.328125 -16.703125 L 25.234375 -27.515625 L 40.890625 -27.515625 L 40.890625 -16.265625 C 40.890625 -10.992188 39.171875 -6.847656 35.734375 -3.828125 C 32.304688 -0.804688 27.867188 0.703125 22.421875 0.703125 Z M 22.421875 0.703125 "/></g></g></g><g fill="#737373" fill-opacity="1"><g transform="translate(427.269227, 132.575096)"><g><path d="M 16.359375 0.703125 C 12.304688 0.703125 9.519531 -0.144531 8 -1.84375 C 6.476562 -3.539062 5.71875 -6.265625 5.71875 -10.015625 L 5.71875 -50.203125 L 1.40625 -50.203125 L 1.40625 -61.890625 L 5.71875 -61.890625 L 5.71875 -75.53125 L 20.65625 -75.53125 L 20.65625 -61.890625 L 25.0625 -61.890625 L 25.0625 -50.203125 L 20.65625 -50.203125 L 20.65625 -14.0625 C 20.65625 -12.945312 20.742188 -12.125 20.921875 -11.59375 C 21.097656 -11.070312 21.566406 -10.8125 22.328125 -10.8125 C 22.921875 -10.8125 23.476562 -10.835938 24 -10.890625 C 24.53125 -10.953125 24.882812 -10.984375 25.0625 -10.984375 L 25.0625 -0.4375 C 24.175781 -0.207031 22.898438 0.0351562 21.234375 0.296875 C 19.566406 0.566406 17.941406 0.703125 16.359375 0.703125 Z M 16.359375 0.703125 "/></g></g></g></svg>