<svg width="153" height="34" viewBox="0 0 153 34" fill="none" xmlns="http://www.w3.org/2000/svg">
<path d="M34.05 26.264C32.9353 26.264 32.004 26.066 31.256 25.67C30.508 25.274 29.9433 24.6653 29.562 23.844C29.1807 23.008 28.968 21.93 28.924 20.61L32.29 20.104C32.3047 20.8667 32.3707 21.4827 32.488 21.952C32.62 22.4213 32.796 22.7587 33.016 22.964C33.2507 23.1693 33.5293 23.272 33.852 23.272C34.2627 23.272 34.5267 23.1327 34.644 22.854C34.776 22.5753 34.842 22.282 34.842 21.974C34.842 21.2407 34.666 20.6247 34.314 20.126C33.962 19.6127 33.4853 19.0993 32.884 18.586L31.344 17.244C30.6693 16.672 30.0973 16.0267 29.628 15.308C29.1733 14.5747 28.946 13.6727 28.946 12.602C28.946 11.0913 29.3933 9.94 30.288 9.148C31.1827 8.34133 32.4 7.938 33.94 7.938C34.8933 7.938 35.656 8.09933 36.228 8.422C36.8147 8.74467 37.2547 9.17 37.548 9.698C37.856 10.2113 38.0613 10.7613 38.164 11.348C38.2813 11.92 38.3473 12.47 38.362 12.998L34.974 13.416C34.9593 12.888 34.9227 12.4333 34.864 12.052C34.82 11.656 34.7173 11.3553 34.556 11.15C34.3947 10.93 34.1453 10.82 33.808 10.82C33.4413 10.82 33.17 10.974 32.994 11.282C32.8327 11.59 32.752 11.898 32.752 12.206C32.752 12.866 32.906 13.4087 33.214 13.834C33.5367 14.2447 33.9547 14.6773 34.468 15.132L35.942 16.43C36.7193 17.09 37.372 17.838 37.9 18.674C38.4427 19.51 38.714 20.544 38.714 21.776C38.714 22.612 38.5233 23.3747 38.142 24.064C37.7607 24.7387 37.218 25.274 36.514 25.67C35.8247 26.066 35.0033 26.264 34.05 26.264ZM42.9308 26L40.7748 8.18H44.1188L45.1748 18.564L46.5168 8.202H49.1348L50.5428 18.498L51.6208 8.18H54.9208L52.7868 26H49.3548L47.8368 15.242L46.4068 26H42.9308ZM56.39 26L59.756 8.18H64.244L67.566 26H63.936L63.342 22.238H60.724L60.108 26H56.39ZM61.076 19.884H62.968L62.022 12.932L61.076 19.884ZM70.2452 26V8.18H76.2292C77.2998 8.18 78.1798 8.38533 78.8692 8.796C79.5585 9.192 80.0718 9.77867 80.4092 10.556C80.7465 11.3187 80.9152 12.25 80.9152 13.35C80.9152 14.7287 80.6878 15.7847 80.2332 16.518C79.7785 17.2367 79.1625 17.7353 78.3852 18.014C77.6078 18.2927 76.7352 18.432 75.7672 18.432H74.1832V26H70.2452ZM74.1832 15.682H75.5032C75.9872 15.682 76.3538 15.594 76.6032 15.418C76.8525 15.242 77.0138 14.978 77.0872 14.626C77.1752 14.274 77.2192 13.8267 77.2192 13.284C77.2192 12.8293 77.1825 12.4333 77.1092 12.096C77.0505 11.744 76.8965 11.4653 76.6472 11.26C76.3978 11.0547 76.0092 10.952 75.4812 10.952H74.1832V15.682ZM81.8043 26L85.1703 8.18H89.6583L92.9803 26H89.3503L88.7563 22.238H86.1383L85.5223 26H81.8043ZM86.4903 19.884H88.3823L87.4363 12.932L86.4903 19.884ZM95.6595 26V8.18H99.5975V23.338H103.689V26H95.6595ZM106.315 26V8.18H110.253V26H106.315ZM113.791 26V8.18H116.563L120.215 16.76V8.18H123.471V26H120.809L117.157 16.76V26H113.791ZM127.003 26V8.18H130.941V15.462L133.933 8.18H137.783L134.483 16.232L137.937 26H133.933L131.359 18.124L130.941 18.828V26H127.003Z" fill="white"/>
<path d="M6.02298 13.9583C5.65887 13.5824 5.29785 13.2034 4.93014 12.831C2.50073 10.3706 1.99543 6.95357 3.6385 4.08305C5.21791 1.32372 8.43475 -0.0459428 11.5411 0.718267C14.7557 1.50911 16.8741 4.21127 16.9765 7.68799C17.0093 8.79836 16.9817 9.91051 16.9817 11.1357C18.4005 11.1357 19.7077 11.1357 21.2545 11.1357C19.1149 13.2876 17.1547 15.2591 15.1371 17.2878C15.0796 17.345 15.0495 17.3501 15.0018 17.2903C14.6887 17.0184 14.4002 16.8294 14.1616 16.5905C12.4598 14.8865 10.7682 13.1723 9.10529 11.3707C10.4081 11.2801 11.6791 11.2801 13.0175 11.2801C13.0175 9.80363 13.1132 8.54663 12.9944 7.31025C12.8292 5.5917 11.479 4.4741 9.80021 4.48525C8.16516 4.49612 6.89246 5.6008 6.66772 7.26921C6.51711 8.3873 6.989 9.28127 7.75737 10.0819C8.04632 10.5105 8.36129 10.8254 8.67626 11.2454C7.80188 12.0941 6.89349 13.1411 6.06711 13.9581C6.05252 13.9554 6.02298 13.9583 6.02298 13.9583Z" fill="#010ED0"/>
<path d="M5.98021 14.0191C6.02271 13.9583 6.05225 13.9554 6.11528 14.014C8.07757 16.0036 9.97684 17.9347 11.7818 19.884C10.5195 20.0005 9.3515 20.0986 8.08213 20.2053C8.08213 20.5048 8.08076 20.8096 8.08239 21.1144C8.08743 22.0586 8.01981 23.0104 8.1155 23.9455C8.28736 25.6248 9.57784 26.7838 11.1881 26.8227C12.8782 26.8635 14.2169 25.7579 14.4623 24.0539C14.6242 22.9296 14.1361 22.0366 13.3708 21.2315C13.0034 20.8451 12.6657 20.4845 12.3507 20.0645C13.226 19.2158 14.2362 18.1687 15.0492 17.3501C15.0492 17.3501 15.0794 17.345 15.0943 17.3481C15.473 17.7271 15.8336 18.1061 16.2012 18.4783C18.6261 20.934 19.1337 24.352 17.4976 27.2208C15.908 30.0081 12.6475 31.3784 9.50162 30.5813C6.34177 29.7807 4.19806 26.9743 4.14355 23.5485C4.12644 22.4727 4.14088 21.3964 4.14088 20.2446C2.75986 20.2446 1.48356 20.2446 0.207254 20.2446C0.138171 20.1627 0.0690857 20.0808 0 19.999C1.97924 18.026 3.95847 16.053 5.98021 14.0191Z" fill="#010ED0"/>
</svg>
