<svg version="1.1" id="Layer_1" xmlns="http://www.w3.org/2000/svg" xmlns:xlink="http://www.w3.org/1999/xlink" x="0px" y="0px"
	 width="100%" viewBox="0 0 840 297" enable-background="new 0 0 840 297" xml:space="preserve">
<path fill="#000000" opacity="1.000000" stroke="none" 
	d="
M587.000000,298.000000 
	C392.875885,298.000000 199.251770,297.990021 5.627683,298.078644 
	C2.114560,298.080231 0.880810,297.664368 0.886915,293.629456 
	C1.032391,197.484146 1.029337,101.338509 0.890406,5.193167 
	C0.884972,1.432689 1.852222,0.915010 5.305151,0.916146 
	C282.410889,1.007339 559.516663,1.011205 836.622375,0.889776 
	C840.641296,0.888014 841.084106,2.095240 841.080383,5.620548 
	C840.979797,101.599350 840.971313,197.578323 841.104004,293.557037 
	C841.109375,297.436707 840.092896,298.094299 836.444641,298.089203 
	C753.463257,297.973297 670.481567,298.000000 587.000000,298.000000 
z"/>
<path fill="#F9F9FD" opacity="1.000000" stroke="none" 
	d="
M291.795349,163.178528 
	C292.403900,150.270309 295.267639,137.929642 296.194000,125.365265 
	C296.402252,122.540985 297.931976,120.408524 301.458191,121.059402 
	C302.584625,121.267326 303.783936,121.065659 304.949585,121.078407 
	C313.347412,121.170227 313.622681,121.131165 314.796936,128.966629 
	C316.419128,139.791428 317.554779,150.688705 318.945892,161.548889 
	C319.337677,164.607651 319.894379,167.645264 320.381256,170.729355 
	C323.449890,166.182083 322.002197,160.859818 322.816223,155.973541 
	C324.559692,145.507751 325.144897,134.841644 326.002136,124.241219 
	C326.198700,121.810493 327.173584,121.049812 329.378906,121.070137 
	C334.043365,121.113152 338.713043,121.207718 343.371857,121.039673 
	C346.853973,120.914055 347.200714,122.924591 346.885468,125.532280 
	C344.903595,141.925140 342.914001,158.317123 340.894775,174.705414 
	C338.918274,190.746841 336.861847,206.778580 334.951416,222.827774 
	C334.674408,225.155029 333.726135,226.011520 331.464813,225.949097 
	C327.968811,225.852615 324.468170,225.925232 320.969482,225.925156 
	C313.513031,225.924973 313.235779,225.965927 312.199951,218.996933 
	C310.301514,206.224594 308.783844,193.395935 307.064941,180.596451 
	C306.696625,177.853821 306.147552,175.135452 305.515350,171.430847 
	C303.171967,178.898804 303.204041,185.868652 302.046814,192.604599 
	C300.307800,202.726868 299.222626,212.963806 297.973053,223.165894 
	C297.708099,225.329300 296.630463,225.950836 294.682190,225.936066 
	C289.517731,225.896942 284.352600,225.893356 279.188232,225.937286 
	C277.159027,225.954544 276.251251,225.124939 276.007080,223.041855 
	C275.111786,215.404373 274.056152,207.785721 273.069305,200.158890 
	C271.432587,187.508911 269.744263,174.865250 268.188751,162.205261 
	C267.053864,152.968063 266.094910,143.709213 265.063263,134.459381 
	C264.718811,131.371246 264.405487,128.279617 264.053467,125.192375 
	C263.717712,122.247337 264.812866,120.901581 267.964417,121.039131 
	C272.287781,121.227829 276.634430,121.248566 280.954071,121.019669 
	C283.573792,120.880852 284.605316,122.252533 284.836487,124.342651 
	C285.936127,134.285507 286.967529,144.237091 287.888916,154.197983 
	C288.343872,159.116043 289.375610,163.999130 288.995911,169.434296 
	C290.013397,170.760254 289.995941,171.935440 289.986511,172.602783 
	C290.987640,169.975327 291.871979,166.820999 291.795349,163.178528 
z"/>
<path fill="#F9F9FE" opacity="1.000000" stroke="none" 
	d="
M723.143127,151.990784 
	C723.124756,143.160706 723.175476,134.827713 723.059143,126.497047 
	C723.007141,122.774719 723.962097,120.614914 728.332092,121.012718 
	C732.133484,121.358765 735.996948,121.214523 739.822083,121.043518 
	C742.771423,120.911682 743.987793,121.861115 743.979675,125.002388 
	C743.896545,157.331192 743.894531,189.660370 743.974915,221.989182 
	C743.982727,225.122772 742.765564,225.906067 739.831726,225.984680 
	C726.807007,226.333633 726.652710,226.282883 722.117065,214.144424 
	C717.992493,203.105865 713.838074,192.078018 709.591553,181.086105 
	C709.224060,180.134750 709.064026,178.778259 707.464417,178.311676 
	C706.505249,179.291382 706.993408,180.630417 706.989502,181.777206 
	C706.946228,194.442001 706.689575,207.115448 707.086853,219.767838 
	C707.252136,225.030502 705.502747,226.570343 700.565308,225.993530 
	C697.441650,225.628601 694.217529,225.683243 691.080383,225.985306 
	C687.068481,226.371582 685.954956,224.865570 685.981262,220.899200 
	C686.145996,196.070267 686.062317,171.239700 686.061035,146.409668 
	C686.060669,139.410599 686.186951,132.408249 686.004761,125.413933 
	C685.921204,122.207214 686.902039,120.746330 690.256775,121.051201 
	C692.405334,121.246452 694.643738,121.402901 696.740967,121.021645 
	C701.667419,120.126068 704.149780,122.331688 705.934937,126.720688 
	C711.250366,139.789291 716.854919,152.740280 723.144165,165.637787 
	C723.144165,161.254791 723.144165,156.871796 723.143127,151.990784 
z"/>
<path fill="#FAFAFE" opacity="1.000000" stroke="none" 
	d="
M763.039551,158.000000 
	C763.038513,147.169861 763.267517,136.832214 762.930664,126.513039 
	C762.781677,121.949219 764.367981,120.694496 768.651184,121.011948 
	C773.125122,121.343544 777.655334,121.289116 782.137634,121.017807 
	C785.849365,120.793144 787.080688,122.057091 787.005554,125.824203 
	C786.787537,136.746704 786.928345,147.676376 787.730896,158.798416 
	C790.836975,151.133682 793.974731,143.481430 796.997437,135.783966 
	C797.283752,135.054855 797.454468,134.318817 797.850708,133.579895 
	C800.032349,129.511642 800.279358,122.715897 804.012024,121.587959 
	C809.965881,119.788803 816.863098,120.969543 823.353821,121.156509 
	C826.086609,121.235214 826.295715,122.844376 825.268860,125.280891 
	C819.758545,138.356277 814.476746,151.527924 808.966553,164.603333 
	C807.661926,167.699219 807.862793,170.416733 809.001648,173.513474 
	C814.961487,189.719681 820.725098,205.998001 826.573608,222.245239 
	C827.525513,224.889709 827.159546,226.138977 823.851501,225.995209 
	C818.030945,225.742233 812.187561,225.802719 806.361938,225.988541 
	C804.223145,226.056763 802.870117,225.458786 802.233582,223.493484 
	C798.158447,210.910889 794.119446,198.316559 790.056274,185.730057 
	C789.667480,184.525803 789.194702,183.348663 788.738647,182.097748 
	C786.288513,183.159149 786.940369,185.150558 786.935181,186.811935 
	C786.899719,198.141632 786.780396,209.474319 787.003723,220.799789 
	C787.079285,224.634094 786.154907,226.285248 782.009155,226.003342 
	C777.033691,225.665009 772.005432,225.712357 767.023621,226.000641 
	C763.786743,226.187927 762.930054,225.258926 762.955078,221.979752 
	C763.116638,200.820847 763.038818,179.660126 763.039551,158.000000 
z"/>
<path fill="#0611CB" opacity="1.000000" stroke="none" 
	d="
M52.915581,164.950195 
	C53.048725,164.426697 53.139282,164.246124 53.506813,164.101471 
	C54.470184,163.628067 55.341206,163.254105 55.887016,162.002869 
	C56.039322,161.436325 56.144753,161.238388 56.551247,161.080963 
	C57.916012,160.448929 59.009056,159.734039 59.813698,158.211533 
	C59.999935,157.939651 60.003498,158.001968 59.972557,157.997894 
	C60.210243,157.798279 60.455532,157.576889 60.828896,157.133011 
	C60.980316,156.936386 60.997566,156.997009 60.966442,156.992065 
	C61.210037,156.797363 61.458179,156.577591 61.833801,156.132111 
	C61.987854,155.936401 61.996098,155.998138 61.971622,155.978882 
	C62.861782,155.184341 63.804134,155.419052 65.068420,156.079391 
	C73.762802,164.382751 81.908417,172.723434 90.158180,180.959503 
	C91.817993,182.616577 93.351608,184.377579 93.777245,187.187927 
	C93.432083,190.118591 90.823151,190.094131 89.044205,191.588470 
	C85.252090,192.748688 81.597862,192.647537 77.864433,193.956055 
	C75.147354,199.151749 76.790886,204.411819 76.692139,209.906784 
	C77.919601,216.586899 78.763191,223.058273 85.601120,226.729950 
	C86.709274,227.327255 87.536217,227.693619 88.785522,227.879547 
	C89.342171,227.984818 89.563889,228.030899 90.114365,228.157990 
	C92.850609,228.823563 95.256119,229.081802 97.953278,228.028046 
	C102.492897,226.388260 105.849281,223.717712 108.239494,219.977310 
	C111.985931,214.114532 111.549309,207.982285 107.133942,202.436340 
	C105.271423,200.096924 103.406563,197.761749 101.383591,195.545013 
	C97.688232,191.495667 97.726830,190.186615 101.453880,186.325546 
	C104.109604,183.574341 106.704201,180.739517 109.644234,178.294891 
	C112.250862,176.127487 111.905052,174.670685 109.546989,172.336212 
	C103.554298,166.403473 97.495033,160.491241 92.504349,153.259048 
	C93.970634,150.228104 95.599808,151.324463 97.236900,152.711929 
	C101.259575,156.121216 104.766800,160.050873 108.427826,163.824295 
	C109.454849,164.882843 110.270302,166.166763 112.041290,166.902054 
	C114.047958,168.403381 115.486153,169.001801 117.526016,167.186813 
	C123.080521,162.244644 128.993988,157.657104 133.527267,151.713303 
	C135.440659,149.204575 136.172913,145.744110 140.079636,145.214294 
	C140.800079,145.116623 141.391739,144.162613 141.082535,143.233185 
	C140.844254,142.516937 140.106018,142.406601 139.442581,142.351334 
	C137.131851,142.158813 134.813889,142.322296 132.501480,142.240204 
	C130.546387,142.170822 128.494934,142.513550 126.651382,140.754105 
	C126.447136,139.858490 126.572372,139.354568 127.238876,138.709656 
	C135.259506,138.432144 142.897125,138.614288 150.895935,138.878571 
	C151.632370,141.174820 149.714081,141.682953 148.722076,142.686874 
	C138.917801,152.609009 129.087173,162.507019 119.121696,172.266541 
	C116.664200,174.673264 116.391319,176.407059 119.132347,178.710373 
	C122.798157,181.790802 125.797768,185.533005 128.865723,189.611115 
	C129.213837,190.176208 129.438583,190.428619 129.864807,190.836319 
	C130.062241,190.995239 130.001221,190.999771 130.011047,190.970810 
	C130.406311,191.419022 130.470291,192.021744 130.863052,192.788940 
	C131.066986,193.002182 131.002930,192.999420 131.013794,192.969269 
	C131.405731,193.419067 131.470490,194.021637 131.862564,194.790131 
	C132.065964,195.004089 132.002686,195.000122 132.014542,194.970718 
	C132.763412,195.906479 132.366013,197.048523 132.648483,198.404449 
	C134.488281,200.063965 134.348007,202.183105 134.945923,204.370911 
	C136.077499,208.845291 135.253326,213.024506 135.240280,217.605698 
	C134.246216,231.132339 121.487946,247.562820 106.372955,251.774429 
	C91.237190,255.991806 77.379395,253.050491 65.594421,242.882797 
	C58.539448,236.796021 54.810764,228.313995 53.004570,219.115494 
	C52.786259,218.003677 52.395809,216.925659 52.114517,215.442444 
	C52.946144,207.610703 52.362331,200.149399 52.175529,192.345825 
	C51.898590,191.994247 51.995640,191.995255 51.995232,192.043777 
	C46.771980,190.784363 41.479900,191.578888 36.224659,191.693054 
	C34.555210,191.729309 32.936554,191.995972 30.961037,191.169525 
	C28.485823,188.159943 31.979424,187.427490 32.795448,185.272797 
	C33.013744,184.927322 33.014275,185.012222 32.971931,185.015259 
	C33.578045,184.560562 34.326260,184.211670 34.840012,183.173279 
	C35.009102,182.924149 35.007149,183.007217 34.965607,183.007751 
	C36.009754,182.346970 37.078438,181.667542 37.824440,180.192719 
	C38.002506,179.931076 38.003094,180.003174 37.967056,180.004150 
	C38.639484,179.520187 39.440079,179.130035 39.909924,177.953125 
	C41.743622,175.902069 43.418186,174.133881 45.359821,172.221313 
	C46.400425,171.671204 47.232433,171.338760 47.824436,170.200851 
	C48.010632,169.929550 48.017117,170.014343 47.975094,170.020844 
	C48.234341,169.776779 48.507027,169.498230 48.908691,168.944427 
	C49.040245,168.439346 49.139660,168.245972 49.533913,168.090515 
	C50.038200,167.861862 50.350388,167.629013 50.833187,167.147156 
	C51.023342,166.924591 51.009995,167.013596 50.965187,167.009384 
	C51.638058,166.524811 52.438511,166.130096 52.915581,164.950195 
z"/>
<path fill="#F9FAFD" opacity="1.000000" stroke="none" 
	d="
M360.112244,191.243286 
	C362.110229,181.128418 364.184753,171.470581 366.042084,161.771179 
	C368.477966,149.050888 370.766205,136.302032 373.054626,123.554100 
	C373.384796,121.714859 374.324799,121.052208 376.091003,121.060471 
	C383.253387,121.093979 390.416809,121.140518 397.578247,121.053749 
	C401.050781,121.011688 401.465576,123.535042 401.890350,125.930733 
	C404.351715,139.813599 406.786774,153.693130 409.668976,167.505188 
	C412.540314,181.265305 414.533295,195.208038 416.955688,209.062943 
	C417.656403,213.070648 418.207306,217.143356 419.382202,221.017899 
	C420.456696,224.561325 419.728516,226.026443 415.946320,225.950531 
	C410.951172,225.850281 405.938660,225.701660 400.960876,226.011734 
	C398.202728,226.183548 397.483734,224.633209 397.175018,222.707443 
	C396.348145,217.549469 395.629974,212.366928 395.112091,207.169891 
	C394.884796,204.888519 394.053162,203.783051 391.736603,203.946686 
	C391.405151,203.970108 391.070282,203.940948 390.737457,203.950867 
	C377.661407,204.339951 381.311554,201.520538 378.933075,214.451996 
	C378.460602,217.020874 378.369812,219.675339 377.721008,222.191849 
	C377.131104,224.479874 375.983368,226.192047 372.905609,226.003052 
	C367.927307,225.697357 362.914734,225.844208 357.919861,225.950500 
	C354.457123,226.024185 353.736145,224.639740 354.424255,221.337997 
	C356.477325,211.486725 358.225128,201.571869 360.112244,191.243286 
z"/>
<path fill="#F9FAFE" opacity="1.000000" stroke="none" 
	d="
M505.078430,202.240112 
	C507.533417,193.876099 508.496033,185.639252 510.066406,177.530792 
	C513.449219,160.064194 516.799438,142.590515 519.992920,125.088722 
	C520.536133,122.111916 521.621582,120.919518 524.746704,121.024597 
	C531.065796,121.237061 537.406555,121.289482 543.719788,121.001022 
	C547.267944,120.838905 548.407593,122.792725 548.890686,125.542328 
	C552.313782,145.026230 555.900024,164.474701 559.699280,183.892548 
	C562.191650,196.631195 564.521790,209.422714 566.842957,222.205399 
	C567.289856,224.666718 566.351929,225.981369 563.664795,225.944931 
	C558.504761,225.874969 553.342468,225.973114 548.182556,225.900864 
	C545.363220,225.861389 543.979248,224.278534 544.081360,221.461273 
	C544.266418,216.353241 541.548035,211.644836 542.034485,206.494873 
	C542.064026,206.181427 542.048523,205.721664 541.856934,205.550369 
	C538.130371,202.218872 533.653931,204.581497 529.551697,204.025299 
	C527.346558,203.726334 527.052979,205.516510 526.886841,207.352814 
	C526.461365,212.053406 525.035950,216.596573 524.815308,221.364395 
	C524.688416,224.106293 523.402893,226.218201 519.798767,225.997971 
	C514.988708,225.704071 510.147247,225.912277 505.319305,225.927063 
	C502.188385,225.936661 500.492493,225.618637 501.698059,221.393250 
	C503.429016,215.326553 504.018860,208.934296 505.078430,202.240112 
z"/>
<path fill="#F9F9FD" opacity="1.000000" stroke="none" 
	d="
M458.838837,188.352737 
	C458.884827,198.811661 458.991211,208.808182 458.893463,218.802689 
	C458.823761,225.928970 458.701294,225.927292 451.755096,225.925415 
	C447.256744,225.924194 442.755127,225.820297 438.261261,225.962158 
	C435.419861,226.051849 434.007507,225.324921 434.015961,222.088333 
	C434.100250,189.767166 434.094086,157.445618 434.019836,125.124382 
	C434.012970,122.125832 434.957489,120.992050 438.043793,121.027252 
	C449.371063,121.156464 460.704773,120.884613 472.028595,121.120781 
	C485.842651,121.408875 496.856354,132.724503 496.904327,146.495895 
	C496.927155,153.044525 497.792297,159.688232 495.366852,166.062881 
	C491.227539,176.942017 482.526947,181.034866 471.717255,181.902649 
	C469.233917,182.102005 466.691986,182.183548 464.228607,181.888474 
	C459.391479,181.309036 456.853210,182.484833 458.838837,188.352737 
z"/>
<path fill="#F9F9FD" opacity="1.000000" stroke="none" 
	d="
M250.776642,142.500259 
	C250.882401,151.404144 250.882202,151.400833 242.190231,151.925964 
	C239.752884,152.073196 237.374634,151.954895 234.902878,152.761673 
	C231.981857,153.715073 229.602600,152.731781 230.041428,148.804474 
	C230.298096,146.507370 228.959839,144.458282 228.933868,142.097198 
	C228.906860,139.642929 226.253983,138.666245 224.408081,138.216873 
	C222.606613,137.778290 220.878662,139.067505 219.873550,141.123276 
	C217.684677,145.600296 218.725525,152.300140 222.910278,156.422043 
	C230.213913,163.615982 237.940506,170.394211 245.035645,177.782837 
	C254.964264,188.122131 256.589142,209.416458 245.615845,219.690582 
	C236.405136,228.314392 225.450867,228.982040 213.913208,225.875031 
	C202.875793,222.902740 198.300552,214.313385 196.189117,204.168427 
	C194.104630,194.152847 194.465485,194.378418 204.935089,191.818451 
	C207.412109,191.212784 210.061249,191.788605 212.536011,190.280807 
	C214.212982,189.259048 216.213379,190.651917 215.884827,193.070450 
	C215.492249,195.960266 216.746185,198.541702 217.021896,201.303207 
	C217.461685,205.708130 221.175873,208.552063 225.070816,208.138214 
	C227.390167,207.891754 228.805634,206.639053 229.028961,204.451416 
	C229.592026,198.935623 228.996017,193.657074 224.934616,189.365448 
	C219.622833,183.752594 213.594131,178.948471 207.746399,173.924545 
	C192.212540,160.579010 189.541565,135.254303 207.246017,124.353874 
	C217.753952,117.884239 239.098877,116.759277 246.798538,131.283844 
	C248.641113,134.759659 249.109634,138.579041 250.776642,142.500259 
z"/>
<path fill="#F8F8FE" opacity="1.000000" stroke="none" 
	d="
M581.075928,139.002563 
	C581.077271,134.006790 581.223511,129.504257 581.031189,125.016228 
	C580.897095,121.886818 582.178467,120.936264 585.151245,121.032211 
	C590.308044,121.198647 595.490723,121.333984 600.631104,120.998962 
	C604.919861,120.719444 605.969238,122.667343 605.950500,126.455849 
	C605.869751,142.773926 605.930176,159.092667 605.934448,175.411163 
	C605.937073,185.397934 606.091736,195.388794 605.837097,205.369125 
	C605.754395,208.609772 606.754028,209.265671 609.734619,209.129654 
	C615.052551,208.886948 620.389648,209.087708 625.718506,209.055984 
	C628.667236,209.038422 630.489197,209.790802 629.161682,213.279373 
	C628.879333,214.021286 628.995605,214.921219 628.960022,215.749710 
	C628.522705,225.929977 628.524231,225.929138 618.117310,225.927307 
	C607.625793,225.925476 597.128662,225.724991 586.645508,226.021011 
	C582.277161,226.144379 580.954834,224.883072 580.986816,220.435150 
	C581.180603,193.458603 581.079102,166.479935 581.075928,139.002563 
z"/>
<path fill="#FAFAFD" opacity="1.000000" stroke="none" 
	d="
M643.056396,146.000015 
	C643.056030,138.837845 643.168152,132.172913 643.005249,125.514694 
	C642.929871,122.431511 643.671692,120.876106 647.148376,121.024200 
	C652.468506,121.250816 657.807800,121.183029 663.133972,121.045555 
	C665.903137,120.974075 666.990845,121.952019 666.985535,124.791595 
	C666.924927,157.269653 666.922302,189.747925 666.981689,222.225983 
	C666.986938,225.091797 665.846741,226.030594 663.109558,225.960022 
	C658.116211,225.831268 653.103333,225.694565 648.124939,225.996078 
	C644.196533,226.233994 642.946045,224.992233 642.974304,220.949417 
	C643.148010,196.133957 643.058411,171.316681 643.056396,146.000015 
z"/>
<path fill="#010ED0" opacity="1.000000" stroke="none" 
	d="
M114.862701,90.831978 
	C115.375229,91.051918 115.638626,91.218796 115.918411,91.720863 
	C116.219421,92.186371 116.435509,92.426819 116.843552,92.816391 
	C117.032631,92.968109 117.002647,92.997604 117.016006,92.984482 
	C117.147324,93.163437 117.265274,93.355499 117.476570,93.870270 
	C118.606567,96.107887 116.976044,98.600868 119.109116,100.584869 
	C119.882156,103.029808 117.918930,106.788185 123.053238,106.493454 
	C125.571999,108.442085 124.456223,111.536278 126.251343,113.896683 
	C126.469940,114.793930 126.466568,115.326729 126.283531,116.256775 
	C125.803246,122.271927 126.990005,127.893867 126.001083,133.899338 
	C124.686157,136.421677 121.942970,136.795609 120.408974,139.121307 
	C119.429161,139.755829 118.690758,139.868942 117.565186,139.653534 
	C115.607758,138.147781 114.378769,136.387863 112.474518,135.254425 
	C110.033859,133.801727 108.549377,131.575394 109.342819,128.596649 
	C110.112778,125.706055 108.232109,125.730072 106.092331,125.360962 
	C105.251068,120.169914 105.738945,115.144165 102.916916,110.390793 
	C96.762436,100.024315 83.411484,96.583237 73.919617,104.709702 
	C73.512947,105.184471 73.333214,105.362389 72.841560,105.762108 
	C67.854118,108.915878 65.134308,115.780563 66.741562,122.023125 
	C67.975365,126.815208 69.577301,131.524277 73.129807,135.350143 
	C76.199364,138.655914 75.844658,142.052155 72.216194,144.687454 
	C69.986603,146.306778 68.533287,148.514343 66.816566,150.511597 
	C65.029541,152.590652 63.472755,152.745010 61.309986,151.084122 
	C49.272659,141.840073 42.602787,128.424438 45.216801,112.221199 
	C45.921944,107.850288 47.155186,103.784264 50.506516,100.160324 
	C53.146492,97.305603 53.758320,92.785492 57.022942,89.852798 
	C59.689159,87.457664 62.825371,86.082306 65.734360,84.216248 
	C75.322243,78.065796 85.666679,77.910400 96.689857,79.783432 
	C97.022408,79.985977 96.997734,79.998482 97.005569,79.986496 
	C99.470650,81.964569 102.253517,83.201302 105.694778,83.800949 
	C105.990616,84.002632 106.000610,83.999695 105.998917,84.004768 
	C106.327179,84.360703 106.539650,84.770119 106.584846,85.599411 
	C106.106483,87.270439 105.372261,88.447945 104.499008,89.916069 
	C103.974831,90.640793 102.390228,90.642433 103.633308,91.665421 
	C104.265480,92.185654 104.863258,93.123825 105.882469,92.745506 
	C106.068192,92.676575 105.674217,91.905190 105.490417,91.115158 
	C105.702415,89.146973 106.722435,88.164825 108.516083,87.435852 
	C110.231415,87.237679 111.228577,88.125572 112.691010,88.781906 
	C113.002907,88.988403 113.001556,88.974739 113.006393,88.968491 
	C113.209053,89.217758 113.426735,89.455048 113.846405,89.833046 
	C114.028534,89.991982 113.997612,90.002319 114.002640,89.986809 
	C114.206985,90.228714 114.432762,90.460350 114.862701,90.831978 
z"/>
<path fill="#0611CB" opacity="1.000000" stroke="none" 
	d="
M96.827301,79.659393 
	C91.357491,79.991074 85.692406,80.024849 80.027718,79.991158 
	C76.268486,79.968796 73.025803,80.906044 70.696510,84.152931 
	C68.752647,86.862549 65.159622,85.130951 62.746437,86.973183 
	C58.667526,90.087029 53.675167,92.361893 53.653576,98.646324 
	C53.651108,99.365677 53.191578,100.339142 52.622425,100.762459 
	C44.256733,106.984695 45.651196,115.978119 46.427807,124.373070 
	C47.452248,135.447037 53.612549,143.743652 62.701038,149.956299 
	C63.165413,150.273727 63.332699,151.025772 64.006958,152.238586 
	C65.264229,149.015610 68.635384,148.062668 69.044945,144.775284 
	C69.156700,143.878265 69.681053,143.617615 70.651482,143.348953 
	C74.458702,142.294952 75.250275,138.878769 72.450768,136.267136 
	C66.142754,130.382462 63.033531,117.610123 66.350975,109.803070 
	C67.357246,107.434975 69.186935,105.251320 72.619125,104.998489 
	C73.686378,106.408142 72.929024,107.548325 72.270866,108.690781 
	C67.567085,116.855835 67.753174,124.515648 74.003288,132.002319 
	C81.048363,140.441208 80.899780,140.564529 73.046341,148.256592 
	C72.218582,149.067337 71.390129,149.876862 70.236084,150.826324 
	C69.473099,151.414383 68.939583,151.750900 68.263901,152.374542 
	C67.937904,152.727463 67.812080,152.870987 67.500671,153.230042 
	C67.188896,153.586548 67.062706,153.727509 66.538437,154.275330 
	C65.995651,154.807144 65.850937,154.932114 65.467102,155.218155 
	C65.048447,155.449127 64.868927,155.519043 64.401054,155.600555 
	C63.544792,155.510727 62.965885,155.491684 62.169777,155.208359 
	C61.940689,155.033173 61.995590,155.000992 61.984421,155.030792 
	C61.792332,154.785538 61.577911,154.539749 61.134686,154.174896 
	C60.939384,154.026596 60.997330,154.002701 60.985329,154.031647 
	C60.792393,153.785599 60.577965,153.539825 60.134743,153.175003 
	C59.939438,153.026749 59.997288,153.002655 59.985207,153.031555 
	C59.790787,152.784180 59.575184,152.536896 59.133202,152.165176 
	C58.940094,152.011749 59.000832,152.000336 58.997314,152.031036 
	C58.862038,151.904709 58.730274,151.747665 58.400993,151.354965 
	C53.262123,145.481750 47.711609,140.291183 45.796570,132.574341 
	C45.174187,130.066391 44.229511,127.641121 44.072491,124.633629 
	C42.895348,120.734314 43.747353,117.131737 43.834892,113.158356 
	C45.549400,99.879845 52.705307,90.720955 63.288013,84.088036 
	C68.095909,81.074600 73.194969,78.287697 79.558617,78.020454 
	C82.994904,76.967651 86.108612,77.713455 89.582565,77.812119 
	C92.200508,78.476891 94.416351,78.904854 96.827301,79.659393 
z"/>
<path fill="#1118BE" opacity="1.000000" stroke="none" 
	d="
M124.755913,135.313538 
	C125.098396,128.876083 125.215652,122.751335 125.585495,116.296143 
	C127.030792,116.947960 126.216019,118.343246 126.744873,119.831520 
	C126.924690,120.163948 127.052101,120.473122 127.038658,120.639778 
	C128.029221,125.294365 127.264549,129.836136 127.216385,134.783813 
	C126.995216,135.218246 127.035957,135.526764 126.973625,135.669327 
	C126.485641,136.466660 126.521393,137.271515 125.846786,138.081329 
	C124.327408,137.651123 124.200684,136.723145 124.755913,135.313538 
z"/>
<path fill="#1118BE" opacity="1.000000" stroke="none" 
	d="
M126.087265,114.258896 
	C123.030403,112.641479 124.695816,109.537262 123.127106,107.330048 
	C121.126678,105.486938 120.561798,103.247917 119.523773,100.836586 
	C118.938660,99.458038 118.987503,98.452110 119.792953,97.196930 
	C124.003677,101.641182 125.287811,107.474335 126.919403,113.528442 
	C126.714645,114.120758 126.545914,114.329575 126.087265,114.258896 
z"/>
<path fill="#2832B6" opacity="1.000000" stroke="none" 
	d="
M29.078016,190.009781 
	C33.925304,192.067245 38.618092,190.585876 43.142342,190.989853 
	C45.903767,191.236435 48.720158,190.521667 51.720020,191.772293 
	C46.304817,192.321609 40.620235,191.416901 34.888302,192.717545 
	C32.985012,193.149429 29.662457,193.596497 29.078016,190.009781 
z"/>
<path fill="#ABB6FF" opacity="1.000000" stroke="none" 
	d="
M151.036346,138.732910 
	C143.471130,140.100937 135.688263,138.553436 127.433365,139.121399 
	C126.851669,138.996918 126.739944,138.866150 126.875298,138.365845 
	C135.020325,138.106812 142.918274,138.217346 151.036346,138.732910 
z"/>
<path fill="#CBCDF7" opacity="1.000000" stroke="none" 
	d="
M291.616577,163.060577 
	C292.612549,168.002289 290.623505,172.886353 290.940033,178.901672 
	C288.047150,176.027771 289.334473,173.202850 288.984009,170.328171 
	C292.584137,168.619675 290.175049,165.339539 291.616577,163.060577 
z"/>
<path fill="#3F48C9" opacity="1.000000" stroke="none" 
	d="
M51.924595,192.464111 
	C54.198959,194.780472 52.777718,198.029694 52.902225,201.046082 
	C53.086136,205.501587 52.811417,209.976028 52.437946,214.747650 
	C52.079468,207.679916 52.015034,200.306961 51.924595,192.464111 
z"/>
<path fill="#0611CB" opacity="1.000000" stroke="none" 
	d="
M120.065903,96.933838 
	C120.058006,98.009109 120.034569,99.092079 120.013977,100.581100 
	C119.849060,101.117653 119.681290,101.248154 119.256760,101.189629 
	C113.048813,100.648956 118.255402,96.683205 116.996353,94.413986 
	C117.168655,93.881760 117.340057,93.747559 117.781372,93.797142 
	C118.348022,94.433380 118.644775,94.885826 118.980255,95.628387 
	C119.224297,96.178177 119.435760,96.432739 119.860245,96.819260 
	C120.067123,96.956329 120.050362,96.941536 120.065903,96.933838 
z"/>
<path fill="#0611CB" opacity="1.000000" stroke="none" 
	d="
M105.830856,83.690720 
	C102.548553,84.192802 99.195168,84.145363 97.063599,80.332108 
	C100.356529,79.946487 102.763451,82.299355 105.830856,83.690720 
z"/>
<path fill="#0611CB" opacity="1.000000" stroke="none" 
	d="
M112.871666,88.677742 
	C111.882126,88.752151 110.761345,88.515900 109.319977,88.139824 
	C108.115204,87.490456 107.005257,87.396584 106.155746,86.269020 
	C105.999710,85.556770 105.997894,85.114761 105.996643,84.341293 
	C108.994766,84.301849 110.839821,86.377441 112.871666,88.677742 
z"/>
<path fill="#ABB6FF" opacity="1.000000" stroke="none" 
	d="
M127.369110,134.976898 
	C126.943344,130.728271 126.891464,126.238304 126.932404,121.277382 
	C129.027405,125.358620 127.735977,130.080536 127.369110,134.976898 
z"/>
<path fill="#A5A9FB" opacity="1.000000" stroke="none" 
	d="
M135.428223,217.844421 
	C134.961075,213.931839 134.876587,209.816147 134.867462,205.222076 
	C137.178818,208.911880 135.579758,213.338181 135.428223,217.844421 
z"/>
<path fill="#9A9CFD" opacity="1.000000" stroke="none" 
	d="
M43.701988,112.963120 
	C44.128117,116.251320 44.166443,119.764946 44.153038,123.757401 
	C41.912582,120.690910 43.242794,116.894890 43.701988,112.963120 
z"/>
<path fill="#9A9CFD" opacity="1.000000" stroke="none" 
	d="
M89.846596,77.641495 
	C86.948875,78.052269 83.913101,78.055611 80.421616,78.035255 
	C83.064026,75.879860 86.452873,77.391411 89.846596,77.641495 
z"/>
<path fill="#777EEC" opacity="1.000000" stroke="none" 
	d="
M29.781433,189.515717 
	C29.569118,189.783051 29.387129,189.737656 29.304039,189.779770 
	C29.037632,187.419724 31.388380,186.785843 32.718273,185.080368 
	C33.002090,187.063095 31.018433,187.820618 29.781433,189.515717 
z"/>
<path fill="#4E52E2" opacity="1.000000" stroke="none" 
	d="
M125.826698,114.310043 
	C125.978050,113.962074 126.158760,113.944763 126.611420,113.919701 
	C126.920731,115.694321 126.958092,117.476700 126.960068,119.711517 
	C125.762726,119.246880 126.111374,117.905746 125.896118,116.336166 
	C125.844063,115.524025 125.850052,115.082359 125.826698,114.310043 
z"/>
<path fill="#777EEC" opacity="1.000000" stroke="none" 
	d="
M37.714180,180.060989 
	C38.057735,181.608475 37.033855,182.440491 35.273308,182.988617 
	C35.757996,182.069153 36.591927,181.130020 37.714180,180.060989 
z"/>
<path fill="#777EEC" opacity="1.000000" stroke="none" 
	d="
M59.705231,158.071960 
	C59.951084,159.623108 58.958263,160.520218 57.091026,161.023651 
	C57.620701,160.104172 58.515614,159.154221 59.705231,158.071960 
z"/>
<path fill="#7D86FC" opacity="1.000000" stroke="none" 
	d="
M132.834686,198.354263 
	C132.438934,197.661896 132.100571,196.619507 131.894287,195.259216 
	C133.732025,195.561783 132.776260,196.934448 132.834686,198.354263 
z"/>
<path fill="#777EEC" opacity="1.000000" stroke="none" 
	d="
M61.932735,155.264847 
	C62.730209,154.951309 63.519733,154.869461 64.698547,154.901154 
	C65.349915,155.433395 65.421379,155.886078 65.076500,156.620422 
	C64.042206,156.679596 63.260643,156.486282 62.213112,156.126312 
	C61.947147,155.959641 61.924782,155.496536 61.932735,155.264847 
z"/>
<path fill="#777EEC" opacity="1.000000" stroke="none" 
	d="
M34.736244,183.053772 
	C35.002548,183.920792 34.598431,184.638641 33.263344,184.978012 
	C33.440849,184.406677 33.952118,183.795044 34.736244,183.053772 
z"/>
<path fill="#777EEC" opacity="1.000000" stroke="none" 
	d="
M39.811497,177.866531 
	C40.085835,178.736786 39.759903,179.594604 38.296154,179.993484 
	C38.471992,179.357681 39.012966,178.710236 39.811497,177.866531 
z"/>
<path fill="#777EEC" opacity="1.000000" stroke="none" 
	d="
M47.717148,170.062897 
	C48.051414,171.087021 47.462044,171.761398 46.003094,172.067261 
	C46.225815,171.450043 46.824738,170.823151 47.717148,170.062897 
z"/>
<path fill="#777EEC" opacity="1.000000" stroke="none" 
	d="
M52.827515,164.874344 
	C53.056656,165.714447 52.725277,166.565079 51.279816,166.971466 
	C51.472794,166.363983 52.025204,165.722809 52.827515,164.874344 
z"/>
<path fill="#777EEC" opacity="1.000000" stroke="none" 
	d="
M55.785862,161.899689 
	C56.064880,162.854523 55.596371,163.677979 54.053646,164.050903 
	C54.280136,163.417618 54.895721,162.757660 55.785862,161.899689 
z"/>
<path fill="#7D86FC" opacity="1.000000" stroke="none" 
	d="
M132.045914,194.674484 
	C131.144089,194.996475 130.947861,194.324921 130.909485,193.276703 
	C131.833679,193.069183 132.038437,193.629639 132.045914,194.674484 
z"/>
<path fill="#7D86FC" opacity="1.000000" stroke="none" 
	d="
M131.049133,192.670395 
	C130.139084,193.003998 129.953384,192.323151 129.907440,191.279999 
	C130.844452,191.055313 131.049652,191.616089 131.049133,192.670395 
z"/>
<path fill="#4E52E2" opacity="1.000000" stroke="none" 
	d="
M126.190964,138.196655 
	C126.092171,137.412857 126.257790,136.814713 126.667358,136.014221 
	C126.945488,136.299347 126.979675,136.786804 127.068115,137.635269 
	C127.122368,137.996277 127.072899,138.039642 127.040192,138.043137 
	C126.823448,138.158539 126.639412,138.270432 126.190964,138.196655 
z"/>
<path fill="#1118BE" opacity="1.000000" stroke="none" 
	d="
M113.948288,89.745239 
	C113.755836,89.803909 113.483139,89.615845 113.110840,89.195007 
	C113.296837,89.140999 113.582436,89.319756 113.948288,89.745239 
z"/>
<path fill="#1118BE" opacity="1.000000" stroke="none" 
	d="
M114.956429,90.750610 
	C114.764687,90.810730 114.488960,90.623703 114.110443,90.203995 
	C114.295921,90.148689 114.584175,90.326080 114.956429,90.750610 
z"/>
<path fill="#7D86FC" opacity="1.000000" stroke="none" 
	d="
M130.003845,190.719360 
	C129.722733,190.842484 129.383240,190.689743 129.018158,190.228851 
	C129.310211,190.094955 129.627838,190.269211 130.003845,190.719360 
z"/>
<path fill="#777EEC" opacity="1.000000" stroke="none" 
	d="
M58.978092,152.292236 
	C59.321320,152.139191 59.702545,152.266617 60.028446,152.727264 
	C59.654114,152.897888 59.335102,152.735306 58.978092,152.292236 
z"/>
<path fill="#1118BE" opacity="1.000000" stroke="none" 
	d="
M116.953598,92.719543 
	C116.756081,92.783325 116.479523,92.598549 116.104591,92.178551 
	C116.295662,92.119217 116.585106,92.295105 116.953598,92.719543 
z"/>
<path fill="#1118BE" opacity="1.000000" stroke="none" 
	d="
M117.986267,93.723030 
	C117.875710,93.989113 117.700157,93.997292 117.260925,94.010712 
	C116.996208,93.841782 116.995171,93.667610 117.011749,93.232407 
	C117.326668,93.135948 117.623970,93.300537 117.986267,93.723030 
z"/>
<path fill="#777EEC" opacity="1.000000" stroke="none" 
	d="
M58.205292,151.354401 
	C58.534420,151.163284 58.797821,151.320435 58.993736,151.826263 
	C58.660290,152.023026 58.398060,151.865616 58.205292,151.354401 
z"/>
<path fill="#777EEC" opacity="1.000000" stroke="none" 
	d="
M48.834244,168.884644 
	C48.880253,169.063248 48.694214,169.429260 48.220623,169.911316 
	C48.156113,169.708939 48.379150,169.390503 48.834244,168.884644 
z"/>
<path fill="#777EEC" opacity="1.000000" stroke="none" 
	d="
M50.754570,167.048309 
	C50.777527,167.233627 50.531712,167.542679 49.994587,167.957825 
	C49.964115,167.766632 50.224953,167.469330 50.754570,167.048309 
z"/>
<path fill="#1118BE" opacity="1.000000" stroke="none" 
	d="
M119.981529,96.706635 
	C119.783943,96.770363 119.500763,96.584389 119.118286,96.158463 
	C119.311302,96.097984 119.603615,96.277458 119.981529,96.706635 
z"/>
<path fill="#777EEC" opacity="1.000000" stroke="none" 
	d="
M59.980057,153.304550 
	C60.320347,153.149353 60.701256,153.271942 61.027748,153.727570 
	C60.655781,153.901169 60.338226,153.741760 59.980057,153.304550 
z"/>
<path fill="#777EEC" opacity="1.000000" stroke="none" 
	d="
M60.979958,154.304428 
	C61.320145,154.149384 61.700901,154.272171 62.027451,154.727768 
	C61.655678,154.901138 61.338108,154.741699 60.979958,154.304428 
z"/>
<path fill="#777EEC" opacity="1.000000" stroke="none" 
	d="
M60.698502,156.979431 
	C60.853481,157.309052 60.726646,157.681732 60.270714,158.024109 
	C60.099976,157.670029 60.258331,157.346268 60.698502,156.979431 
z"/>
<path fill="#777EEC" opacity="1.000000" stroke="none" 
	d="
M61.716160,155.993927 
	C61.843338,156.287964 61.698826,156.639526 61.244820,156.989105 
	C61.105038,156.675232 61.274754,156.363327 61.716160,155.993927 
z"/>
<path fill="#000000" opacity="1.000000" stroke="none" 
	d="
M64.953735,157.198181 
	C64.900581,156.462494 64.977386,156.052078 65.071014,155.328186 
	C65.087845,155.014709 65.024818,154.995499 65.026947,155.028320 
	C65.239876,154.813660 65.456970,154.571854 65.869904,154.182388 
	C66.059425,154.029068 66.002541,154.002304 66.015617,154.030884 
	C66.221581,153.795929 66.439224,153.554718 66.870781,153.181763 
	C67.059937,153.027679 67.000404,153.002731 67.021988,153.026764 
	C67.398300,152.603912 67.509544,152.065231 67.780548,151.302612 
	C70.933174,148.244629 73.827805,145.298035 76.948639,142.614532 
	C78.999985,140.850647 78.524818,139.371185 77.063271,137.710953 
	C76.081924,136.596222 75.067566,135.510590 74.083656,134.398087 
	C65.932030,125.180946 65.325722,115.601303 72.851463,105.318069 
	C72.990639,104.994301 73.000191,104.999474 72.997444,104.994980 
	C74.624863,103.171249 76.840286,102.285080 79.355995,101.163284 
	C82.728676,100.486420 85.740532,100.620674 89.163040,100.672501 
	C97.578537,102.387917 101.904068,107.718819 104.088600,115.692223 
	C104.465012,123.322433 104.705986,130.527908 103.905350,138.121643 
	C102.277573,140.610519 100.021378,140.261963 97.927437,140.364197 
	C93.345879,140.587921 88.743164,139.986359 83.961578,140.947174 
	C83.544640,141.877472 83.867462,142.387863 84.556602,143.073090 
	C85.234489,143.734756 85.613029,144.231613 86.188736,144.958160 
	C86.516090,145.343079 86.649498,145.495544 86.990692,145.871582 
	C87.629578,146.542587 88.059250,146.991486 88.763191,147.623566 
	C90.260086,149.332016 92.485214,150.045120 92.840302,152.688507 
	C99.712181,159.281540 104.743713,167.204239 112.251480,172.736938 
	C114.948235,174.724289 113.686913,176.354004 111.701935,178.147141 
	C108.007065,181.484863 104.599518,185.140182 100.913086,188.487900 
	C98.909035,190.307800 99.327477,191.983719 100.938393,193.404892 
	C103.688530,195.831085 105.553352,198.985199 108.068962,201.568787 
	C114.156525,207.820847 112.948929,216.044830 108.245720,222.102783 
	C106.015144,224.975800 103.662910,228.335052 99.069489,228.712448 
	C96.141869,229.923523 93.330048,229.331909 90.117172,229.246780 
	C89.684189,229.068054 89.583626,228.970001 89.531357,229.016907 
	C88.612831,228.498795 87.629448,228.467514 86.299721,228.312439 
	C78.180923,225.442566 76.793297,218.784836 75.865288,211.399124 
	C75.159309,204.992462 75.636871,198.985931 75.772171,192.559296 
	C80.020515,191.736511 84.062622,191.341492 88.543106,190.893631 
	C89.934273,190.008820 91.126007,190.087982 92.272202,189.940155 
	C93.918640,189.727829 94.079788,188.766983 93.232857,187.182770 
	C91.372261,182.970657 87.935188,180.525116 85.064240,177.610153 
	C78.437447,170.881699 71.747833,164.215134 64.953735,157.198181 
z"/>
<path fill="#010ED0" opacity="1.000000" stroke="none" 
	d="
M105.751007,125.230270 
	C107.776924,125.565331 108.809944,123.587181 110.499069,123.615517 
	C110.670929,124.142326 111.040886,124.657906 110.931450,125.034027 
	C109.393845,130.318939 110.595932,134.188141 116.242020,136.050644 
	C116.684723,136.196686 116.748848,137.490387 116.995224,138.626877 
	C118.023270,139.676804 118.572105,141.797531 120.611801,139.890839 
	C123.011032,138.727982 124.561859,140.369797 126.679031,140.982620 
	C130.973557,141.002731 134.947556,140.951675 138.919342,141.023254 
	C140.638214,141.054230 143.017044,140.370636 143.506287,142.766800 
	C143.918884,144.787613 141.793243,146.427582 140.434692,146.801239 
	C137.769196,147.534424 137.134506,149.199188 135.790390,151.276810 
	C133.348480,155.051300 129.622589,158.026367 126.288605,161.183029 
	C123.381035,163.935974 120.126991,166.295212 117.499939,169.383728 
	C115.516960,171.715027 113.790413,170.767136 112.270470,168.195251 
	C111.776970,167.762009 111.436646,167.559021 111.355331,167.279480 
	C110.151558,163.141266 107.529976,160.172928 103.783333,157.706879 
	C104.157402,156.121719 105.324280,155.645828 106.516319,154.718109 
	C108.141289,153.724838 110.208008,153.923660 110.613739,151.484650 
	C110.628357,149.036026 109.661140,147.690094 107.179230,147.321777 
	C106.127769,147.242172 105.379128,147.155533 104.415329,146.949844 
	C104.190071,146.905273 103.793068,147.033371 103.864197,147.266846 
	C104.155464,148.514786 104.070206,149.509979 103.597733,150.810822 
	C102.707047,152.158951 101.794044,152.970657 100.204819,153.428253 
	C97.471733,152.560745 97.877396,150.227432 97.118011,148.123016 
	C96.619949,145.625320 95.727478,145.410263 94.058792,147.309143 
	C92.040611,147.991272 90.390358,147.473373 88.365936,147.031525 
	C87.525963,146.789322 87.057022,146.616241 86.280342,146.215073 
	C85.963242,146.012375 86.007599,146.003891 85.998489,146.024551 
	C85.692223,145.667465 85.542686,145.241272 85.664444,144.422607 
	C86.428955,143.110031 87.513885,142.626114 88.654114,141.686691 
	C90.746819,140.462921 92.920052,141.603714 95.044434,140.410095 
	C96.044624,140.098404 96.733093,140.097046 97.760864,140.305206 
	C103.902740,141.658783 105.855927,139.998459 105.047173,134.714142 
	C104.575363,131.631363 104.197433,128.487732 105.751007,125.230270 
z"/>
<path fill="#010ED1" opacity="1.000000" stroke="none" 
	d="
M97.636292,146.747696 
	C98.487144,148.841507 98.975517,150.686066 99.732895,152.765625 
	C101.454552,153.962250 103.491783,154.221405 103.997559,156.661865 
	C104.173988,157.279297 104.320541,157.780090 104.526077,157.805588 
	C110.115784,158.499344 111.567619,162.408676 111.950554,167.602020 
	C107.287262,166.480255 105.559624,161.672958 101.976585,158.891342 
	C99.159363,156.704239 97.457329,153.046829 93.216278,152.726791 
	C91.424187,151.522781 89.840034,150.065338 88.122482,148.308014 
	C87.622231,147.620850 87.478142,147.163391 87.768631,146.324799 
	C89.819489,145.810959 91.549332,146.248123 93.620895,146.955475 
	C94.992691,146.183105 96.073189,145.948456 97.636292,146.747696 
z"/>
<path fill="#010ED1" opacity="1.000000" stroke="none" 
	d="
M126.996582,140.691238 
	C126.760811,142.333786 126.418755,143.179214 124.911324,141.932281 
	C123.969780,141.153442 122.775360,140.680328 121.348183,140.034821 
	C120.657394,139.930283 120.376419,139.754822 120.074982,139.244156 
	C119.788544,135.949936 121.817017,135.277206 124.605621,135.006668 
	C125.133186,135.857727 125.285225,136.714615 125.681900,137.791260 
	C126.105362,138.058197 126.284172,138.105377 126.735229,138.099609 
	C126.959465,138.225143 126.911446,138.403671 126.913406,138.854935 
	C126.973160,139.544601 126.982925,139.961517 126.996582,140.691238 
z"/>
<path fill="#8B92FB" opacity="1.000000" stroke="none" 
	d="
M75.615875,192.340820 
	C75.978210,198.105881 75.978004,204.080246 75.896988,210.518890 
	C73.932030,204.890640 75.286392,198.699203 75.615875,192.340820 
z"/>
<path fill="#0E17A9" opacity="1.000000" stroke="none" 
	d="
M92.993423,187.254730 
	C94.288033,187.703903 95.465874,188.540009 95.834465,190.140625 
	C93.793869,190.703979 91.818008,191.217758 89.358047,190.909729 
	C89.032440,188.224411 92.496002,189.762009 92.993423,187.254730 
z"/>
<path fill="#777EEC" opacity="1.000000" stroke="none" 
	d="
M89.993484,229.363098 
	C92.456078,229.059143 95.227966,229.050232 98.442322,229.039169 
	C96.135269,230.779724 93.214211,230.152512 89.993484,229.363098 
z"/>
<path fill="#777EEC" opacity="1.000000" stroke="none" 
	d="
M86.235252,228.440353 
	C86.984940,228.054108 88.038460,227.642441 89.236275,228.748016 
	C88.491356,228.941742 87.503632,228.819702 86.235252,228.440353 
z"/>
<path fill="#000000" opacity="1.000000" stroke="none" 
	d="
M383.950684,178.180588 
	C385.872589,171.398514 385.121246,164.582764 387.651245,157.107162 
	C388.607727,167.613785 390.705231,176.738007 391.310669,186.101868 
	C391.545105,189.727402 389.540039,189.218262 387.660675,189.002579 
	C385.836792,188.793274 382.363922,190.714310 382.989502,186.345901 
	C383.357117,183.778946 384.242126,181.285553 383.950684,178.180588 
z"/>
<path fill="#000000" opacity="1.000000" stroke="none" 
	d="
M533.569214,161.668991 
	C533.905579,160.023697 533.993164,158.739899 534.080811,157.456085 
	C534.304077,157.442673 534.527405,157.429260 534.750671,157.415833 
	C535.862000,165.450470 536.979004,173.484314 538.074036,181.521164 
	C538.162903,182.173141 538.008789,182.863068 538.129395,183.504959 
	C538.450012,185.211044 540.157715,187.376450 538.680725,188.509766 
	C536.725464,190.010086 533.888550,189.028763 531.443787,189.007156 
	C528.855103,188.984283 529.883667,186.781281 530.025085,185.653091 
	C531.013733,177.765137 532.198486,169.901733 533.569214,161.668991 
z"/>
<path fill="#000000" opacity="1.000000" stroke="none" 
	d="
M458.852356,164.099304 
	C458.805878,159.364960 458.861328,155.036316 458.908691,150.707596 
	C458.921417,149.544052 458.928741,148.379883 458.905457,147.216660 
	C458.843964,144.144394 455.876678,139.701752 461.589447,139.035461 
	C470.400635,138.007767 473.932343,140.798141 474.084015,147.893402 
	C474.140839,150.551910 474.123444,153.212479 474.109222,155.871948 
	C474.072418,162.756882 471.808868,163.991760 466.152069,164.746918 
	C464.038605,165.029068 461.308899,165.452087 458.852356,164.099304 
z"/>
<path fill="#0611CB" opacity="1.000000" stroke="none" 
	d="
M106.056961,124.596054 
	C106.483421,129.154678 104.736679,133.578781 107.569290,137.470703 
	C107.861755,137.872528 107.815651,139.085724 107.529449,139.256393 
	C104.648697,140.974396 102.025002,143.890274 98.056854,141.371185 
	C99.050369,139.615616 100.705681,140.241425 102.396019,139.667648 
	C102.931664,139.339645 103.126961,139.172623 103.421997,138.625122 
	C103.463768,130.739700 103.599197,123.234154 103.220581,115.381599 
	C100.407639,109.233040 97.539375,103.702522 90.296288,101.889221 
	C86.551018,101.124191 83.138504,101.602211 79.415489,101.763733 
	C77.579895,103.487602 75.666260,104.259834 73.352600,104.973160 
	C73.737732,100.184677 78.010460,100.299187 81.236130,99.501701 
	C95.931175,95.868607 110.116074,110.061211 106.056961,124.596054 
z"/>
<path fill="#010ED1" opacity="1.000000" stroke="none" 
	d="
M120.353592,121.903008 
	C115.211006,121.431534 116.463989,116.509529 113.832893,113.742775 
	C120.148682,114.220253 121.206581,115.571625 120.353592,121.903008 
z"/>
<path fill="#010ED1" opacity="1.000000" stroke="none" 
	d="
M118.960594,101.365189 
	C119.169418,100.999207 119.338837,100.997810 119.762543,100.991783 
	C122.312614,102.028984 122.050369,104.468529 122.945084,106.645538 
	C122.812080,106.999374 122.648560,106.988686 122.486954,107.001755 
	C116.502182,107.485909 116.502205,107.486214 118.960594,101.365189 
z"/>
<path fill="#0611CB" opacity="1.000000" stroke="none" 
	d="
M105.806335,90.778389 
	C106.430832,92.381493 109.809700,92.494743 108.054153,94.513847 
	C106.824730,95.927849 105.072922,94.509254 103.814720,93.347420 
	C103.219246,92.797562 102.488472,92.396286 101.833389,91.908379 
	C101.081596,91.348434 99.838905,90.795273 100.645630,89.694908 
	C101.383713,88.688179 102.405861,89.955124 103.665573,89.971252 
	C104.617645,89.952217 105.155312,90.138077 105.806335,90.778389 
z"/>
<path fill="#010ED1" opacity="1.000000" stroke="none" 
	d="
M106.130760,90.720810 
	C105.445099,90.830444 104.891106,90.659859 104.168060,90.246056 
	C103.959244,88.584023 104.022530,87.204086 105.695801,86.157547 
	C107.152000,86.005402 108.076813,86.441765 108.857269,87.711853 
	C108.087067,88.813530 107.174751,89.627060 106.130760,90.720810 
z"/>
<path fill="#0611CB" opacity="1.000000" stroke="none" 
	d="
M119.625435,138.999710 
	C120.321098,139.103989 120.581512,139.292160 120.891739,139.781769 
	C120.883133,141.204498 121.237915,142.847122 119.327110,142.788574 
	C117.538933,142.733795 117.065605,141.323303 117.007530,139.380417 
	C117.751205,139.002045 118.500885,139.001038 119.625435,138.999710 
z"/>
<path fill="#0611CB" opacity="1.000000" stroke="none" 
	d="
M76.714958,85.187286 
	C76.096771,87.625053 74.471832,87.039253 73.084076,86.706718 
	C72.341072,86.528687 72.232925,85.637642 72.731758,85.095291 
	C73.899994,83.825111 75.243103,83.580788 76.714958,85.187286 
z"/>
<path fill="#010ED1" opacity="1.000000" stroke="none" 
	d="
M120.088844,128.809631 
	C121.016525,131.878937 118.834679,130.801300 117.695396,130.881805 
	C116.843925,130.942001 116.077110,130.331650 116.588142,129.342133 
	C117.315781,127.933189 118.517067,127.829575 120.088844,128.809631 
z"/>
<path fill="#0611CB" opacity="1.000000" stroke="none" 
	d="
M65.954559,90.598244 
	C65.221252,90.199394 65.215057,89.796585 65.735046,89.439682 
	C65.844070,89.364845 66.097244,89.367043 66.203857,89.444305 
	C66.714485,89.814384 66.695602,90.216965 65.954559,90.598244 
z"/>
<path fill="#0611CB" opacity="1.000000" stroke="none" 
	d="
M58.459988,95.614212 
	C58.687805,96.416611 58.405670,96.705124 57.784111,96.583054 
	C57.654728,96.557648 57.480171,96.374809 57.460449,96.244278 
	C57.365490,95.615845 57.670734,95.351921 58.459988,95.614212 
z"/>
<path fill="#0611CB" opacity="1.000000" stroke="none" 
	d="
M109.539932,102.385803 
	C109.312172,101.583458 109.594116,101.294701 110.215828,101.416832 
	C110.345207,101.442245 110.519737,101.625114 110.539467,101.755661 
	C110.634438,102.384102 110.329308,102.648178 109.539932,102.385803 
z"/>
<path fill="#777EEC" opacity="1.000000" stroke="none" 
	d="
M67.652893,151.221161 
	C67.850433,151.686630 67.758385,152.293762 67.354950,152.975830 
	C66.553185,152.375046 66.942238,151.865891 67.652893,151.221161 
z"/>
<path fill="#777EEC" opacity="1.000000" stroke="none" 
	d="
M65.723846,153.964874 
	C65.901497,154.347198 65.743576,154.665329 65.307358,155.022293 
	C65.148811,154.674316 65.268539,154.287506 65.723846,153.964874 
z"/>
<path fill="#777EEC" opacity="1.000000" stroke="none" 
	d="
M66.724731,152.967361 
	C66.901031,153.344727 66.742119,153.661758 66.305954,154.019135 
	C66.148972,153.675339 66.269249,153.291183 66.724731,152.967361 
z"/>
<path fill="#7D86FC" opacity="1.000000" stroke="none" 
	d="
M103.036987,115.496826 
	C105.146423,123.106583 104.042885,131.265945 103.285088,139.631226 
	C102.808937,139.707489 102.683388,139.559341 102.739914,139.183807 
	C102.976280,131.290939 103.030571,123.625443 103.036987,115.496826 
z"/>
<path fill="#A5A9FB" opacity="1.000000" stroke="none" 
	d="
M102.460579,138.969788 
	C102.921989,138.956451 102.924454,139.406113 102.929474,139.630859 
	C102.934486,139.855621 102.954330,139.980911 102.981094,140.038422 
	C98.951019,140.682114 94.843529,140.583344 90.356339,141.004761 
	C88.866760,140.990067 87.829803,141.313568 86.394302,141.343231 
	C84.854477,141.315826 83.708153,141.505188 82.233002,141.815628 
	C81.306793,139.136063 81.305626,139.022003 83.618355,138.998291 
	C89.744698,138.935455 95.872154,138.980820 102.460579,138.969788 
z"/>
<path fill="#272DBB" opacity="1.000000" stroke="none" 
	d="
M82.029373,142.170868 
	C82.120186,140.315140 83.220909,140.247833 84.766846,140.512512 
	C85.596519,141.072433 85.781639,141.660889 85.860718,142.615692 
	C85.812592,143.140320 85.765266,143.347473 85.582230,143.845062 
	C85.320480,144.310242 85.194443,144.484985 84.745323,144.650803 
	C83.668411,143.914246 82.914566,143.186630 82.029373,142.170868 
z"/>
<path fill="#9A9CFD" opacity="1.000000" stroke="none" 
	d="
M79.537125,101.962479 
	C82.406532,100.059319 85.947006,101.028519 89.677414,101.507812 
	C86.614899,101.866943 83.299652,101.903702 79.537125,101.962479 
z"/>
<path fill="#272DBB" opacity="1.000000" stroke="none" 
	d="
M87.644608,146.008759 
	C87.986732,146.456909 87.993050,146.899994 87.994232,147.675598 
	C87.379601,147.530060 86.770103,147.051987 86.061920,146.293152 
	C86.411766,146.009491 86.860291,146.006592 87.644608,146.008759 
z"/>
<path fill="#272DBB" opacity="1.000000" stroke="none" 
	d="
M85.338501,144.158173 
	C86.000526,144.468292 86.006317,144.918747 86.000740,145.707214 
	C85.570518,145.721008 85.151657,145.396805 84.577515,144.857239 
	C84.422249,144.641861 84.682259,144.298508 85.338501,144.158173 
z"/>
<path fill="#010ED1" opacity="1.000000" stroke="none" 
	d="
M111.765167,150.774902 
	C112.478882,154.285202 110.894623,155.417053 107.412865,154.999817 
	C105.110176,154.575180 104.053406,153.186508 103.062180,151.325165 
	C103.000107,149.610931 102.999939,148.221893 102.999580,146.416107 
	C104.066223,145.999649 105.133057,145.999908 106.599945,146.000397 
	C108.402161,147.624619 109.713234,149.339340 111.765167,150.774902 
z"/>
<path fill="#0611CB" opacity="1.000000" stroke="none" 
	d="
M102.687988,151.037506 
	C104.241623,152.141663 105.482986,153.283325 106.862144,154.712494 
	C106.925713,156.458954 106.078842,157.026855 104.353210,156.994354 
	C102.700500,155.887772 101.401039,154.775543 100.051743,153.331970 
	C100.793167,152.358749 101.584435,151.716873 102.687988,151.037506 
z"/>
<path fill="#0611CB" opacity="1.000000" stroke="none" 
	d="
M111.994568,150.626541 
	C109.072975,151.064987 107.272568,149.808624 107.005348,146.373978 
	C109.928101,145.933929 111.727623,147.191406 111.994568,150.626541 
z"/>
<path fill="#272DBB" opacity="1.000000" stroke="none" 
	d="
M88.918076,140.757874 
	C93.277550,140.246521 97.678551,140.126221 102.543701,140.050903 
	C101.806374,141.415543 100.202866,140.819794 98.376175,141.005280 
	C97.246330,141.023621 96.499931,141.024277 95.380417,141.037857 
	C93.595001,142.240631 91.973091,141.226822 90.079445,141.465134 
	C89.444519,141.348389 89.202057,141.248657 88.918076,140.757874 
z"/>
<path fill="#010ED1" opacity="1.000000" stroke="none" 
	d="
M88.495453,140.319061 
	C88.876556,140.366821 88.833687,140.687103 88.829636,140.848618 
	C88.767570,141.191360 88.709557,141.372604 88.825615,141.780075 
	C88.925392,143.468613 88.068192,144.025986 86.348145,144.006165 
	C85.994736,144.017822 85.992104,144.006958 85.986580,144.010925 
	C85.755066,143.798523 85.533691,143.577545 85.163200,143.174698 
	C85.020836,142.405396 85.032204,141.813309 85.066124,140.927521 
	C86.097237,140.512985 87.105797,140.392136 88.495453,140.319061 
z"/>
<path fill="#0611CB" opacity="1.000000" stroke="none" 
	d="
M97.988068,146.617126 
	C96.932755,146.997757 95.866722,146.998581 94.400955,146.999390 
	C94.070160,145.674454 93.910240,144.199951 95.868607,144.091461 
	C97.380508,144.007675 97.938408,144.869492 97.988068,146.617126 
z"/>
<path fill="#0611CB" opacity="1.000000" stroke="none" 
	d="
M111.530807,142.641449 
	C111.943275,140.427917 113.193474,140.890778 114.350517,141.560623 
	C114.969238,141.918808 114.984184,142.743347 114.542213,143.239639 
	C113.529480,144.376831 112.561508,143.808685 111.530807,142.641449 
z"/>
<path fill="#0611CB" opacity="1.000000" stroke="none" 
	d="
M89.378204,142.005020 
	C88.570473,141.867020 88.141251,141.727753 87.712029,141.588486 
	C87.929543,141.406662 88.147064,141.224838 88.595085,141.026581 
	C90.595009,141.011368 92.364433,141.012604 94.570572,141.032318 
	C93.854713,144.661057 91.356674,140.858337 89.378204,142.005020 
z"/>
<path fill="#0611CB" opacity="1.000000" stroke="none" 
	d="
M102.999695,145.999695 
	C102.368317,145.907608 101.648811,145.907669 101.509186,145.091339 
	C101.479736,144.919220 101.838707,144.680649 102.018700,144.472702 
	C102.321823,144.793320 102.624954,145.113937 102.963730,145.716980 
	C102.999390,145.999390 103.000000,146.000000 102.999695,145.999695 
z"/>
<path fill="#0611CB" opacity="1.000000" stroke="none" 
	d="
M85.002533,143.248978 
	C85.329987,143.103088 85.586983,143.294159 85.880753,143.792770 
	C85.981056,144.014877 85.488686,144.011093 85.242477,144.007401 
	C84.996048,143.835953 84.995819,143.668213 85.002533,143.248978 
z"/>
</svg>