<svg xmlns="http://www.w3.org/2000/svg" xmlns:xlink="http://www.w3.org/1999/xlink" width="500" zoomAndPan="magnify" viewBox="0 0 375 374.999991" height="500" preserveAspectRatio="xMidYMid meet" version="1.0"><defs><clipPath id="20759c7a79"><path d="M 241.703125 23.195312 L 286.230469 23.195312 L 286.230469 67.71875 L 241.703125 67.71875 Z M 241.703125 23.195312 " clip-rule="nonzero"/></clipPath><clipPath id="1df9700d6c"><path d="M 263.964844 23.195312 C 251.671875 23.195312 241.703125 33.160156 241.703125 45.457031 C 241.703125 57.75 251.671875 67.71875 263.964844 67.71875 C 276.261719 67.71875 286.230469 57.75 286.230469 45.457031 C 286.230469 33.160156 276.261719 23.195312 263.964844 23.195312 Z M 263.964844 23.195312 " clip-rule="nonzero"/></clipPath><clipPath id="8cf3e97af9"><path d="M 134.671875 90.824219 L 232.609375 90.824219 L 232.609375 188.761719 L 134.671875 188.761719 Z M 134.671875 90.824219 " clip-rule="nonzero"/></clipPath><clipPath id="01b486fa4a"><path d="M 183.640625 90.824219 C 156.597656 90.824219 134.671875 112.75 134.671875 139.792969 C 134.671875 166.835938 156.597656 188.761719 183.640625 188.761719 C 210.683594 188.761719 232.609375 166.835938 232.609375 139.792969 C 232.609375 112.75 210.683594 90.824219 183.640625 90.824219 Z M 183.640625 90.824219 " clip-rule="nonzero"/></clipPath><clipPath id="90780c9d87"><path d="M 129.570312 250.816406 L 281.820312 250.816406 L 281.820312 352.066406 L 129.570312 352.066406 Z M 129.570312 250.816406 " clip-rule="nonzero"/></clipPath><clipPath id="3e7033ebb0"><path d="M 152 317.933594 L 176 317.933594 L 176 348 L 152 348 Z M 152 317.933594 " clip-rule="nonzero"/></clipPath><clipPath id="19071b7913"><path d="M 227 317.933594 L 231 317.933594 L 231 320 L 227 320 Z M 227 317.933594 " clip-rule="nonzero"/></clipPath><clipPath id="0b786cf2ba"><path d="M 103.316406 67.71875 L 263.816406 67.71875 L 263.816406 228.21875 L 103.316406 228.21875 Z M 103.316406 67.71875 " clip-rule="nonzero"/></clipPath></defs><g clip-path="url(#20759c7a79)"><g clip-path="url(#1df9700d6c)"><path fill="#ff5f00" d="M 241.703125 23.195312 L 286.230469 23.195312 L 286.230469 67.71875 L 241.703125 67.71875 Z M 241.703125 23.195312 " fill-opacity="1" fill-rule="nonzero"/></g></g><g clip-path="url(#8cf3e97af9)"><g clip-path="url(#01b486fa4a)"><path fill="#edeae9" d="M 134.671875 90.824219 L 232.609375 90.824219 L 232.609375 188.761719 L 134.671875 188.761719 Z M 134.671875 90.824219 " fill-opacity="1" fill-rule="nonzero"/></g></g><g clip-path="url(#90780c9d87)"><path fill="#ff5f00" d="M 129.617188 254.089844 L 129.617188 277.738281 C 129.617188 279.605469 131.128906 281.117188 132.992188 281.117188 L 233.640625 281.117188 C 244.601562 281.117188 254.171875 289.515625 254.601562 300.472656 C 255.054688 312.085938 245.851562 321.660156 234.347656 321.660156 C 232.484375 321.660156 230.972656 323.171875 230.972656 325.039062 L 230.972656 348.6875 C 230.972656 350.578125 232.527344 352.070312 234.417969 352.066406 C 260.464844 352.03125 281.648438 329.308594 281.648438 301.390625 C 281.648438 273.445312 260.429688 250.710938 234.347656 250.710938 L 132.992188 250.710938 C 131.128906 250.710938 129.617188 252.226562 129.617188 254.089844 Z M 129.617188 254.089844 " fill-opacity="1" fill-rule="nonzero"/></g><path fill="#737373" d="M 223.617188 343.746094 C 223.476562 345.503906 222.8125 346.941406 221.609375 348.058594 C 220.40625 349.175781 218.785156 349.738281 216.761719 349.738281 C 215.246094 349.738281 213.921875 349.558594 212.785156 349.191406 C 211.652344 348.828125 210.585938 348.066406 209.582031 346.898438 L 204.839844 349.480469 C 205.496094 350.578125 206.269531 351.480469 207.160156 352.1875 C 208.058594 352.890625 209.027344 353.46875 210.078125 353.910156 C 211.125 354.363281 212.222656 354.671875 213.375 354.847656 C 214.527344 355.011719 215.679688 355.097656 216.8125 355.097656 C 221.035156 355.097656 224.222656 353.902344 226.351562 351.511719 C 228.488281 349.125 229.554688 345.800781 229.554688 341.53125 L 229.554688 324.304688 L 223.511719 324.304688 L 223.511719 334.667969 C 223.511719 336.875 222.921875 338.511719 221.738281 339.601562 C 220.550781 340.683594 219.011719 341.21875 217.113281 341.21875 C 215.261719 341.21875 213.773438 340.640625 212.65625 339.472656 C 211.539062 338.300781 210.976562 336.632812 210.976562 334.46875 L 210.976562 324.304688 L 204.941406 324.304688 L 204.941406 334.46875 C 204.941406 336.179688 205.203125 337.78125 205.714844 339.261719 C 206.234375 340.742188 206.996094 342.035156 208.015625 343.132812 C 209.027344 344.234375 210.285156 345.097656 211.78125 345.738281 C 213.269531 346.371094 215.003906 346.691406 216.96875 346.691406 C 218.4375 346.691406 219.738281 346.414062 220.863281 345.867188 C 221.980469 345.316406 222.898438 344.613281 223.617188 343.746094 Z M 223.617188 343.746094 " fill-opacity="1" fill-rule="nonzero"/><path fill="#737373" d="M 183.992188 338.335938 L 191.273438 338.335938 C 192.648438 338.335938 193.914062 338.234375 195.066406 338.027344 C 196.21875 337.816406 197.210938 337.460938 198.050781 336.96875 C 198.902344 336.46875 199.550781 335.800781 200.015625 334.953125 C 200.476562 334.113281 200.710938 333.054688 200.710938 331.785156 C 200.710938 330.511719 200.40625 329.386719 199.785156 328.398438 C 199.167969 327.421875 198.355469 326.597656 197.359375 325.921875 C 196.363281 325.257812 195.230469 324.738281 193.957031 324.382812 C 192.683594 324.019531 191.378906 323.835938 190.035156 323.835938 C 188.210938 323.835938 186.519531 324.121094 184.980469 324.683594 C 183.429688 325.257812 182.097656 326.0625 180.980469 327.109375 C 179.863281 328.164062 178.988281 329.421875 178.375 330.875 C 177.75 332.335938 177.449219 333.964844 177.449219 335.757812 C 177.449219 337.539062 177.761719 339.160156 178.402344 340.605469 C 179.03125 342.050781 179.925781 343.28125 181.058594 344.292969 C 182.191406 345.304688 183.535156 346.09375 185.082031 346.640625 C 186.625 347.191406 188.296875 347.460938 190.085938 347.460938 C 192.148438 347.460938 194.0625 347.160156 195.808594 346.535156 C 197.566406 345.921875 199.097656 344.953125 200.40625 343.644531 L 196.484375 339.730469 C 195.378906 340.726562 194.285156 341.367188 193.203125 341.660156 C 192.121094 341.957031 191.136719 342.101562 190.242188 342.101562 C 188.695312 342.101562 187.371094 341.773438 186.269531 341.117188 C 185.171875 340.46875 184.410156 339.539062 183.992188 338.335938 Z M 191.480469 333.375 L 183.691406 333.375 C 184.0625 331.941406 184.832031 330.875 185.984375 330.207031 C 187.136719 329.53125 188.484375 329.203125 190.035156 329.203125 C 191.273438 329.203125 192.347656 329.4375 193.257812 329.898438 C 194.164062 330.363281 194.625 330.988281 194.625 331.785156 C 194.625 332.433594 194.320312 332.867188 193.722656 333.074219 C 193.117188 333.28125 192.375 333.375 191.480469 333.375 Z M 191.480469 333.375 " fill-opacity="1" fill-rule="nonzero"/><g clip-path="url(#3e7033ebb0)"><path fill="#737373" d="M 175.429688 324.304688 L 169.34375 324.304688 C 168.824219 326.980469 167.863281 329.023438 166.453125 330.417969 C 165.042969 331.808594 163.105469 332.503906 160.628906 332.503906 L 158.609375 332.503906 L 158.609375 316.972656 L 152.578125 316.972656 L 152.578125 347.003906 L 158.609375 347.003906 L 158.609375 337.972656 L 161.035156 337.972656 C 162.34375 337.972656 163.5 338.199219 164.496094 338.640625 C 165.492188 339.089844 166.339844 339.714844 167.050781 340.5 C 167.753906 341.289062 168.324219 342.242188 168.746094 343.339844 C 169.179688 344.441406 169.484375 345.660156 169.65625 347.003906 L 175.898438 347.003906 C 175.207031 341.152344 172.816406 337.195312 168.722656 335.132812 C 169.691406 334.683594 170.558594 334.070312 171.328125 333.28125 C 172.105469 332.484375 172.773438 331.609375 173.34375 330.648438 C 173.90625 329.679688 174.375 328.660156 174.738281 327.578125 C 175.09375 326.496094 175.328125 325.402344 175.429688 324.304688 Z M 175.429688 324.304688 " fill-opacity="1" fill-rule="nonzero"/></g><g clip-path="url(#19071b7913)"><path fill="#000000" d="M 227.433594 307.023438 L 230.636719 307.023438 L 230.636719 319.464844 L 227.433594 319.464844 Z M 227.433594 307.023438 " fill-opacity="1" fill-rule="evenodd"/></g><g clip-path="url(#0b786cf2ba)"><path fill="#ff5f00" d="M 183.636719 228.359375 C 139.347656 228.359375 103.316406 192.328125 103.316406 148.039062 C 103.316406 103.75 139.347656 67.71875 183.636719 67.71875 C 227.925781 67.71875 263.957031 103.75 263.957031 148.039062 C 263.957031 192.328125 227.925781 228.359375 183.636719 228.359375 Z M 183.636719 102 C 158.246094 102 137.59375 122.652344 137.59375 148.039062 C 137.59375 173.425781 158.246094 194.082031 183.636719 194.082031 C 209.023438 194.082031 229.675781 173.425781 229.675781 148.039062 C 229.675781 122.652344 209.023438 102 183.636719 102 Z M 183.636719 102 " fill-opacity="1" fill-rule="nonzero"/></g></svg>