<svg width="22" height="31" viewBox="0 0 22 31" fill="none" xmlns="http://www.w3.org/2000/svg">
<path d="M6.02298 13.9583C5.65887 13.5824 5.29785 13.2034 4.93014 12.831C2.50073 10.3706 1.99543 6.9536 3.6385 4.08308C5.21791 1.32376 8.43475 -0.0459123 11.5411 0.718298C14.7557 1.50914 16.8741 4.2113 16.9765 7.68802C17.0093 8.79839 16.9817 9.91054 16.9817 11.1357C18.4005 11.1357 19.7077 11.1357 21.2545 11.1357C19.1149 13.2876 17.1547 15.2591 15.1371 17.2878C15.0796 17.3451 15.0495 17.3502 15.0018 17.2903C14.6887 17.0184 14.4002 16.8294 14.1616 16.5905C12.4598 14.8865 10.7682 13.1723 9.10529 11.3708C10.4081 11.2801 11.6791 11.2801 13.0175 11.2801C13.0175 9.80367 13.1132 8.54666 12.9944 7.31028C12.8292 5.59173 11.479 4.47413 9.80021 4.48528C8.16516 4.49615 6.89246 5.60083 6.66772 7.26924C6.51711 8.38733 6.989 9.2813 7.75737 10.082C8.04632 10.5105 8.36129 10.8255 8.67626 11.2454C7.80188 12.0942 6.89349 13.1411 6.06711 13.9582C6.05252 13.9555 6.02298 13.9583 6.02298 13.9583Z" fill="#010ED0"/>
<path d="M5.98021 14.0191C6.02271 13.9582 6.05225 13.9554 6.11528 14.014C8.07757 16.0036 9.97684 17.9347 11.7818 19.884C10.5195 20.0004 9.3515 20.0986 8.08213 20.2053C8.08213 20.5047 8.08076 20.8095 8.08239 21.1143C8.08743 22.0586 8.01981 23.0104 8.1155 23.9455C8.28736 25.6248 9.57784 26.7837 11.1881 26.8226C12.8782 26.8635 14.2169 25.7579 14.4623 24.0539C14.6242 22.9296 14.1361 22.0366 13.3708 21.2315C13.0034 20.845 12.6657 20.4845 12.3507 20.0645C13.226 19.2158 14.2362 18.1686 15.0492 17.3501C15.0492 17.3501 15.0794 17.345 15.0943 17.3481C15.473 17.727 15.8336 18.1061 16.2012 18.4783C18.6261 20.934 19.1337 24.3519 17.4976 27.2208C15.908 30.0081 12.6475 31.3784 9.50162 30.5813C6.34177 29.7806 4.19806 26.9743 4.14355 23.5484C4.12644 22.4727 4.14088 21.3964 4.14088 20.2446C2.75986 20.2446 1.48356 20.2446 0.207254 20.2446C0.138171 20.1627 0.0690857 20.0808 0 19.9989C1.97924 18.0259 3.95847 16.0529 5.98021 14.0191Z" fill="#010ED0"/>
</svg>
