<svg width="231" height="59" viewBox="0 0 231 59" fill="none" xmlns="http://www.w3.org/2000/svg">
<path d="M8.94546 29.9765C8.40466 29.4181 7.86845 28.8552 7.32231 28.3021C3.71398 24.6478 2.96349 19.5726 5.40387 15.3091C7.74972 11.2108 12.5276 9.17648 17.1413 10.3115C21.9159 11.4862 25.0622 15.4996 25.2144 20.6634C25.263 22.3126 25.222 23.9644 25.222 25.7842C27.3293 25.7842 29.2708 25.7842 31.5682 25.7842C28.3905 28.9803 25.4791 31.9085 22.4823 34.9217C22.397 35.0067 22.3522 35.0143 22.2814 34.9254C21.8164 34.5215 21.3878 34.2408 21.0335 33.886C18.5059 31.3551 15.9934 28.8091 13.5235 26.1333C15.4586 25.9986 17.3462 25.9986 19.3342 25.9986C19.3342 23.8057 19.4763 21.9387 19.2998 20.1024C19.0544 17.5499 17.049 15.8899 14.5556 15.9065C12.1272 15.9226 10.2369 17.5634 9.90307 20.0414C9.67938 21.7021 10.3803 23.0299 11.5215 24.219C11.9507 24.8556 12.4185 25.3234 12.8863 25.9471C11.5876 27.2077 10.2384 28.7627 9.011 29.9762C8.98933 29.9722 8.94546 29.9765 8.94546 29.9765Z" fill="#C7CAFF"/>
<path d="M8.8822 30.0668C8.94532 29.9765 8.98919 29.9722 9.08281 30.0592C11.9973 33.0144 14.8183 35.8825 17.4991 38.7778C15.6242 38.9507 13.8894 39.0965 12.0041 39.255C12.0041 39.6997 12.0021 40.1525 12.0045 40.6052C12.012 42.0076 11.9115 43.4213 12.0537 44.8101C12.3089 47.3044 14.2256 49.0257 16.6173 49.0835C19.1275 49.1441 21.1159 47.5021 21.4803 44.9712C21.7208 43.3013 20.9958 41.9749 19.8591 40.7791C19.3135 40.2052 18.8119 39.6696 18.3441 39.0459C19.6441 37.7853 21.1446 36.23 22.3521 35.0142C22.3521 35.0142 22.3968 35.0066 22.419 35.0112C22.9816 35.5741 23.5171 36.1371 24.063 36.69C27.6647 40.3373 28.4186 45.4138 25.9886 49.6748C23.6275 53.8147 18.7848 55.85 14.1124 54.6661C9.41921 53.4769 6.23523 49.3087 6.15427 44.2204C6.12885 42.6226 6.1503 41.0241 6.1503 39.3133C4.09912 39.3133 2.20347 39.3133 0.307827 39.3133C0.205221 39.1917 0.10261 39.0701 0 38.9485C2.93969 36.0181 5.87938 33.0876 8.8822 30.0668Z" fill="#010ED0"/>
<path d="M48.6 48.44C46.6533 48.44 45.0267 48.0667 43.72 47.32C42.4133 46.5467 41.4267 45.4267 40.76 43.96C40.0933 42.4933 39.72 40.6933 39.64 38.56L44.72 37.56C44.7733 38.8133 44.92 39.92 45.16 40.88C45.4267 41.84 45.8133 42.5867 46.32 43.12C46.8533 43.6267 47.5467 43.88 48.4 43.88C49.36 43.88 50.04 43.6 50.44 43.04C50.84 42.4533 51.04 41.72 51.04 40.84C51.04 39.4267 50.72 38.2667 50.08 37.36C49.44 36.4533 48.5867 35.5467 47.52 34.64L43.44 31.04C42.2933 30.0533 41.3733 28.96 40.68 27.76C40.0133 26.5333 39.68 25.0267 39.68 23.24C39.68 20.68 40.4267 18.7067 41.92 17.32C43.4133 15.9333 45.4533 15.24 48.04 15.24C49.56 15.24 50.8267 15.48 51.84 15.96C52.8533 16.4133 53.6533 17.0533 54.24 17.88C54.8533 18.7067 55.3067 19.6533 55.6 20.72C55.8933 21.76 56.08 22.8667 56.16 24.04L51.12 24.92C51.0667 23.9067 50.9467 23 50.76 22.2C50.6 21.4 50.2933 20.7733 49.84 20.32C49.4133 19.8667 48.7733 19.64 47.92 19.64C47.04 19.64 46.36 19.9333 45.88 20.52C45.4267 21.08 45.2 21.7867 45.2 22.64C45.2 23.7333 45.4267 24.64 45.88 25.36C46.3333 26.0533 46.9867 26.7733 47.84 27.52L51.88 31.08C53.2133 32.2 54.3467 33.52 55.28 35.04C56.24 36.5333 56.72 38.3467 56.72 40.48C56.72 42.0267 56.3733 43.4 55.68 44.6C55.0133 45.8 54.0667 46.7467 52.84 47.44C51.64 48.1067 50.2267 48.44 48.6 48.44ZM65.2056 48L60.6056 15.6H65.5656L68.2456 36.6L71.6056 15.68H75.6456L79.0856 36.6L81.7256 15.6H86.6056L82.0856 48H77.2856L73.6856 26.28L70.1256 48H65.2056ZM89.2266 48L95.7066 15.6H102.027L108.507 48H103.027L101.747 40.52H96.1066L94.7866 48H89.2266ZM96.7066 36.76H101.107L98.9066 23.16L96.7066 36.76ZM113.365 48V15.6H122.885C124.832 15.6 126.405 15.96 127.605 16.68C128.832 17.4 129.725 18.4533 130.285 19.84C130.872 21.2 131.165 22.8533 131.165 24.8C131.165 26.9067 130.805 28.6133 130.085 29.92C129.365 31.2 128.352 32.1333 127.045 32.72C125.765 33.3067 124.245 33.6 122.485 33.6H119.285V48H113.365ZM119.285 29.44H121.525C122.592 29.44 123.418 29.2933 124.005 29C124.618 28.68 125.032 28.1867 125.245 27.52C125.485 26.8267 125.605 25.9067 125.605 24.76C125.605 23.5867 125.512 22.64 125.325 21.92C125.165 21.1733 124.792 20.6267 124.205 20.28C123.645 19.9333 122.752 19.76 121.525 19.76H119.285V29.44ZM132.7 48L139.18 15.6H145.5L151.98 48H146.5L145.22 40.52H139.58L138.26 48H132.7ZM140.18 36.76H144.58L142.38 23.16L140.18 36.76ZM156.838 48V15.6H162.758V43.92H170.598V48H156.838ZM175.434 48V15.6H181.274V48H175.434ZM187.89 48V15.6H192.01L199.89 34.08V15.6H204.77V48H200.85L192.93 28.64V48H187.89ZM211.287 48V15.6H217.207V29.84L223.607 15.6H229.247L223.047 30.08L229.887 48H224.007L218.567 33.24L217.207 35.72V48H211.287Z" fill="url(#paint0_linear_2439_2)"/>
<defs>
<linearGradient id="paint0_linear_2439_2" x1="135" y1="16.5" x2="135" y2="55" gradientUnits="userSpaceOnUse">
<stop stop-color="#010ED0"/>
<stop offset="1" stop-color="#C7CAFF"/>
</linearGradient>
</defs>
</svg>
