<svg xmlns="http://www.w3.org/2000/svg" xmlns:xlink="http://www.w3.org/1999/xlink" width="250" zoomAndPan="magnify" viewBox="0 0 187.5 52.499999" height="70" preserveAspectRatio="xMidYMid meet" version="1.0"><defs><g/><clipPath id="8c0d1e2ef6"><path d="M 2 13 L 24 13 L 24 35 L 2 35 Z M 2 13 " clip-rule="nonzero"/></clipPath><clipPath id="5f6400a2df"><path d="M -4.84375 24.617188 L 19.84375 -0.0742188 L 43.484375 23.566406 L 18.792969 48.257812 Z M -4.84375 24.617188 " clip-rule="nonzero"/></clipPath><clipPath id="584491ae56"><path d="M -4.84375 24.617188 L 19.84375 -0.0742188 L 43.484375 23.566406 L 18.792969 48.257812 Z M -4.84375 24.617188 " clip-rule="nonzero"/></clipPath><clipPath id="213fb6108b"><path d="M 14 13 L 36 13 L 36 35 L 14 35 Z M 14 13 " clip-rule="nonzero"/></clipPath><clipPath id="8749384367"><path d="M -4.84375 24.617188 L 19.84375 -0.0742188 L 43.484375 23.566406 L 18.792969 48.257812 Z M -4.84375 24.617188 " clip-rule="nonzero"/></clipPath><clipPath id="9b83dd74f1"><path d="M -4.84375 24.617188 L 19.84375 -0.0742188 L 43.484375 23.566406 L 18.792969 48.257812 Z M -4.84375 24.617188 " clip-rule="nonzero"/></clipPath></defs><g clip-path="url(#8c0d1e2ef6)"><g clip-path="url(#5f6400a2df)"><g clip-path="url(#584491ae56)"><path fill="#5ce1e6" d="M 19.792969 27.078125 C 19.792969 27.984375 19.441406 28.835938 18.800781 29.476562 C 18.160156 30.117188 17.308594 30.46875 16.402344 30.46875 L 6.835938 30.46875 C 6.679688 30.46875 6.578125 30.398438 6.515625 30.335938 C 6.457031 30.277344 6.386719 30.171875 6.386719 30.019531 L 6.386719 20.453125 C 6.386719 19.519531 6.765625 18.671875 7.378906 18.054688 C 7.996094 17.441406 8.84375 17.0625 9.777344 17.0625 L 14.011719 17.0625 L 18 13.074219 L 9.777344 13.074219 C 7.804688 13.074219 5.953125 13.839844 4.558594 15.234375 C 3.164062 16.628906 2.394531 18.480469 2.394531 20.453125 L 2.394531 30.019531 C 2.394531 31.207031 2.859375 32.320312 3.695312 33.160156 C 4.535156 33.996094 5.648438 34.457031 6.835938 34.457031 L 16.402344 34.457031 C 18.371094 34.457031 20.226562 33.691406 21.621094 32.296875 C 23.015625 30.902344 23.78125 29.046875 23.78125 27.078125 L 23.78125 18.851562 L 19.792969 22.84375 L 19.792969 27.078125 " fill-opacity="1" fill-rule="nonzero"/></g></g></g><g clip-path="url(#213fb6108b)"><g clip-path="url(#8749384367)"><g clip-path="url(#9b83dd74f1)"><path fill="#2a4ff6" d="M 34.695312 14.875 C 33.859375 14.039062 32.742188 13.578125 31.558594 13.578125 L 21.992188 13.578125 C 20.019531 13.578125 18.167969 14.34375 16.773438 15.738281 C 15.378906 17.132812 14.609375 18.984375 14.609375 20.957031 L 14.609375 29.183594 L 18.601562 25.191406 L 18.601562 20.957031 C 18.601562 20.023438 18.980469 19.175781 19.59375 18.5625 C 20.210938 17.945312 21.058594 17.566406 21.992188 17.566406 L 31.558594 17.566406 C 31.710938 17.566406 31.816406 17.636719 31.875 17.699219 C 31.9375 17.757812 32.007812 17.863281 32.007812 18.015625 L 32.007812 27.582031 C 32.007812 28.488281 31.65625 29.339844 31.015625 29.980469 C 30.375 30.621094 29.519531 30.972656 28.617188 30.972656 L 24.378906 30.972656 L 20.390625 34.960938 L 28.617188 34.960938 C 30.585938 34.960938 32.441406 34.195312 33.835938 32.800781 C 35.230469 31.40625 35.996094 29.554688 35.996094 27.582031 L 35.996094 18.015625 C 35.996094 16.828125 35.535156 15.714844 34.695312 14.875 " fill-opacity="1" fill-rule="nonzero"/></g></g></g><g fill="#5ce1e6" fill-opacity="1"><g transform="translate(42.549347, 32.738905)"><g><path d="M 11.828125 -9.003906 C 10.816406 -10.347656 9.199219 -11.222656 7.386719 -11.222656 L 6.078125 -11.222656 C 5.320312 -11.222656 4.695312 -11.847656 4.695312 -12.609375 L 4.695312 -12.742188 C 4.695312 -13.503906 5.320312 -14.128906 6.078125 -14.128906 L 7.949219 -14.128906 C 10.113281 -14.128906 11.867188 -15.941406 11.867188 -18.296875 L 6.078125 -18.296875 C 3.019531 -18.296875 0.527344 -15.804688 0.527344 -12.742188 L 0.527344 -12.609375 C 0.527344 -11.359375 0.933594 -10.210938 1.636719 -9.273438 C 2.648438 -7.929688 4.246094 -7.054688 6.078125 -7.054688 L 7.386719 -7.054688 C 8.125 -7.054688 8.769531 -6.429688 8.769531 -5.691406 L 8.769531 -5.535156 C 8.769531 -4.792969 8.125 -4.152344 7.386719 -4.152344 L 5.046875 -4.152344 C 2.882812 -4.152344 1.128906 -2.359375 1.128906 0 L 7.386719 0 C 10.445312 0 12.9375 -2.476562 12.9375 -5.535156 L 12.9375 -5.691406 C 12.9375 -6.917969 12.53125 -8.066406 11.828125 -9.003906 Z M 11.828125 -9.003906 "/></g></g></g><g fill="#5ce1e6" fill-opacity="1"><g transform="translate(55.00001, 32.738905)"><g><path d="M 19 -15.6875 L 16.269531 -6.175781 L 14.535156 -12.238281 L 16.347656 -18.082031 C 14.148438 -18.765625 11.867188 -17.691406 11.242188 -15.6875 L 8.535156 -6.058594 L 5.808594 -15.6875 C 5.183594 -17.691406 2.902344 -18.765625 0.722656 -18.082031 L 5.574219 -2.417969 C 5.769531 -1.773438 6.15625 -1.207031 6.644531 -0.78125 C 7.171875 -0.332031 7.8125 0 8.535156 0 C 9.257812 0 9.898438 -0.332031 10.425781 -0.78125 C 10.914062 -1.207031 11.300781 -1.773438 11.496094 -2.417969 L 12.394531 -5.339844 L 13.308594 -2.417969 C 13.503906 -1.773438 13.894531 -1.207031 14.378906 -0.78125 C 14.90625 -0.332031 15.550781 0 16.269531 0 C 16.992188 0 17.636719 -0.332031 18.160156 -0.78125 C 18.648438 -1.207031 19.039062 -1.773438 19.234375 -2.417969 L 24.085938 -18.082031 C 21.902344 -18.765625 19.621094 -17.691406 19 -15.6875 Z M 19 -15.6875 "/></g></g></g><g fill="#5ce1e6" fill-opacity="1"><g transform="translate(78.674013, 32.738905)"><g><path d="M 10.679688 -15.921875 C 10.425781 -16.914062 9.898438 -17.597656 9.042969 -18.082031 C 8.574219 -18.355469 8.066406 -18.492188 7.523438 -18.492188 C 6.976562 -18.492188 6.46875 -18.355469 6.019531 -18.082031 C 5.164062 -17.597656 4.617188 -16.914062 4.382812 -15.921875 L 0.136719 -0.117188 C 2.339844 0.410156 4.5 -0.78125 5.007812 -2.785156 L 5.222656 -3.664062 L 5.300781 -4.113281 L 9.742188 -4.113281 L 9.839844 -3.664062 L 10.054688 -2.785156 C 10.542969 -0.78125 12.722656 0.410156 14.90625 -0.117188 Z M 9.0625 -7.386719 L 5.980469 -7.386719 L 7.523438 -13.308594 Z M 9.0625 -7.386719 "/></g></g></g><g fill="#5ce1e6" fill-opacity="1"><g transform="translate(92.995235, 32.738905)"><g><path d="M 13.953125 -14.710938 C 13.640625 -15.53125 13.210938 -16.210938 12.628906 -16.757812 C 12.042969 -17.324219 11.359375 -17.730469 10.542969 -18.023438 C 9.722656 -18.316406 8.808594 -18.472656 7.792969 -18.472656 L 5.144531 -18.472656 C 3.15625 -18.472656 0.972656 -16.582031 0.972656 -14.265625 L 0.972656 0 C 3.410156 0 5.398438 -2.28125 5.398438 -5.105469 L 5.398438 -5.261719 L 7.578125 -5.261719 C 8.554688 -5.261719 9.46875 -5.417969 10.308594 -5.691406 C 11.164062 -5.960938 11.886719 -6.390625 12.492188 -6.957031 C 13.09375 -7.523438 13.582031 -8.222656 13.914062 -9.042969 C 14.265625 -9.878906 14.417969 -10.835938 14.417969 -11.925781 L 14.417969 -11.964844 C 14.417969 -12.996094 14.265625 -13.914062 13.953125 -14.710938 Z M 10.015625 -11.691406 C 10.015625 -10.949219 9.78125 -10.367188 9.332031 -9.9375 C 8.886719 -9.488281 8.28125 -9.273438 7.484375 -9.273438 L 5.398438 -9.273438 L 5.398438 -14.1875 L 7.464844 -14.1875 C 8.261719 -14.1875 8.886719 -13.972656 9.332031 -13.5625 C 9.78125 -13.152344 10.015625 -12.550781 10.015625 -11.75 Z M 10.015625 -11.691406 "/></g></g></g><g fill="#000000" fill-opacity="1"><g transform="translate(107.60932, 32.738905)"><g/></g></g><g fill="#000000" fill-opacity="1"><g transform="translate(112.636214, 32.738905)"><g><path d="M 10.679688 -15.921875 C 10.425781 -16.914062 9.898438 -17.597656 9.042969 -18.082031 C 8.574219 -18.355469 8.066406 -18.492188 7.523438 -18.492188 C 6.976562 -18.492188 6.46875 -18.355469 6.019531 -18.082031 C 5.164062 -17.597656 4.617188 -16.914062 4.382812 -15.921875 L 0.136719 -0.117188 C 2.339844 0.410156 4.5 -0.78125 5.007812 -2.785156 L 5.222656 -3.664062 L 5.300781 -4.113281 L 9.742188 -4.113281 L 9.839844 -3.664062 L 10.054688 -2.785156 C 10.542969 -0.78125 12.722656 0.410156 14.90625 -0.117188 Z M 9.0625 -7.386719 L 5.980469 -7.386719 L 7.523438 -13.308594 Z M 9.0625 -7.386719 "/></g></g></g><g fill="#000000" fill-opacity="1"><g transform="translate(126.957435, 32.738905)"><g/></g></g><g fill="#010ed0" fill-opacity="1"><g transform="translate(131.989452, 32.738905)"><g><path d="M 5.261719 -18.296875 C 2.902344 -18.296875 0.972656 -16.542969 0.972656 -14.359375 L 0.972656 -0.0390625 C 0.972656 -0.0195312 0.972656 0 0.972656 0 L 8.75 0 C 10.933594 0 12.683594 -1.910156 12.683594 -4.285156 L 5.261719 -4.285156 Z M 5.261719 -18.296875 "/></g></g></g><g fill="#010ed0" fill-opacity="1"><g transform="translate(144.888269, 32.738905)"><g><path d="M 0.972656 -14.4375 L 0.972656 0.078125 C 3.332031 0.078125 5.222656 -1.675781 5.222656 -3.820312 L 5.222656 -18.335938 C 2.882812 -18.335938 0.972656 -16.582031 0.972656 -14.4375 Z M 0.972656 -14.4375 "/></g></g></g><g fill="#010ed0" fill-opacity="1"><g transform="translate(150.324344, 32.738905)"><g><path d="M 12.355469 -14.359375 L 12.355469 -7.65625 L 4.949219 -18.335938 C 2.746094 -18.335938 0.972656 -16.542969 0.972656 -14.359375 L 0.972656 0.0976562 C 3.175781 0.0976562 4.949219 -1.675781 4.949219 -3.878906 L 4.949219 -11.261719 L 12.355469 -1.34375 L 12.355469 0.0976562 C 14.554688 0.0976562 16.425781 -1.695312 16.425781 -3.898438 L 16.425781 -18.335938 C 14.226562 -18.335938 12.355469 -16.542969 12.355469 -14.359375 Z M 12.355469 -14.359375 "/></g></g></g><g fill="#010ed0" fill-opacity="1"><g transform="translate(166.944788, 32.738905)"><g><path d="M 9.664062 -8.886719 C 9.410156 -9.3125 9.273438 -9.488281 8.90625 -9.761719 L 13.796875 -18.121094 C 11.789062 -19.3125 9.820312 -18.804688 8.730469 -16.933594 L 5.222656 -10.949219 L 5.222656 -18.765625 C 2.863281 -18.765625 0.972656 -17.03125 0.972656 -14.867188 L 0.972656 -0.117188 C 3.3125 -0.117188 5.222656 -1.851562 5.222656 -4.015625 L 5.222656 -7.074219 C 5.457031 -7.054688 5.710938 -7.09375 5.941406 -7.132812 L 9.179688 -1.753906 C 10.289062 0.0976562 12.859375 0.507812 14.671875 -0.585938 Z M 9.664062 -8.886719 "/></g></g></g></svg>