<svg xmlns="http://www.w3.org/2000/svg" xmlns:xlink="http://www.w3.org/1999/xlink" width="500" zoomAndPan="magnify" viewBox="0 0 375 374.999991" height="500" preserveAspectRatio="xMidYMid meet" version="1.0"><defs><clipPath id="b59f2baf7d"><path d="M 36 89 L 229 89 L 229 282 L 36 282 Z M 36 89 " clip-rule="nonzero"/></clipPath><clipPath id="e5c1b1c506"><path d="M -28.507812 192.894531 L 192.640625 -28.253906 L 403.183594 182.285156 L 182.035156 403.433594 Z M -28.507812 192.894531 " clip-rule="nonzero"/></clipPath><clipPath id="4f92229959"><path d="M -28.507812 192.894531 L 192.640625 -28.253906 L 403.183594 182.285156 L 182.035156 403.433594 Z M -28.507812 192.894531 " clip-rule="nonzero"/></clipPath><clipPath id="1e7e8fa69d"><path d="M 146 93 L 339 93 L 339 286 L 146 286 Z M 146 93 " clip-rule="nonzero"/></clipPath><clipPath id="f4985f552d"><path d="M -28.507812 192.894531 L 192.640625 -28.253906 L 403.183594 182.285156 L 182.035156 403.433594 Z M -28.507812 192.894531 " clip-rule="nonzero"/></clipPath><clipPath id="13bac7a48b"><path d="M -28.507812 192.894531 L 192.640625 -28.253906 L 403.183594 182.285156 L 182.035156 403.433594 Z M -28.507812 192.894531 " clip-rule="nonzero"/></clipPath></defs><g clip-path="url(#b59f2baf7d)"><g clip-path="url(#e5c1b1c506)"><g clip-path="url(#4f92229959)"><path fill="#5ce1e6" d="M 192.851562 214.988281 C 192.851562 223.128906 189.683594 230.78125 183.925781 236.539062 C 178.171875 242.296875 170.515625 245.464844 162.375 245.464844 L 76.429688 245.464844 C 75.046875 245.464844 74.113281 244.820312 73.574219 244.28125 C 73.035156 243.742188 72.390625 242.808594 72.390625 241.425781 L 72.390625 155.480469 C 72.390625 147.074219 75.808594 139.460938 81.328125 133.941406 C 86.847656 128.421875 94.46875 125.003906 102.867188 125 L 140.914062 125.003906 L 176.761719 89.15625 L 102.867188 89.15625 C 85.152344 89.15625 68.496094 96.054688 55.972656 108.582031 C 43.445312 121.109375 36.542969 137.765625 36.546875 155.480469 L 36.546875 241.429688 C 36.546875 252.082031 40.695312 262.097656 48.226562 269.628906 C 55.761719 277.160156 65.773438 281.308594 76.429688 281.3125 L 162.378906 281.3125 C 180.089844 281.308594 196.746094 274.410156 209.273438 261.886719 C 221.800781 249.359375 228.699219 232.703125 228.699219 214.988281 L 228.695312 141.09375 L 192.851562 176.9375 L 192.851562 214.988281 " fill-opacity="1" fill-rule="nonzero"/></g></g></g><g clip-path="url(#1e7e8fa69d)"><g clip-path="url(#f4985f552d)"><g clip-path="url(#13bac7a48b)"><path fill="#2a4ff6" d="M 326.761719 105.371094 C 319.230469 97.835938 309.214844 93.6875 298.558594 93.6875 L 212.613281 93.6875 C 194.898438 93.6875 178.242188 100.585938 165.714844 113.113281 C 153.191406 125.640625 146.292969 142.292969 146.292969 160.007812 L 146.292969 233.902344 L 182.136719 198.058594 L 182.136719 160.007812 C 182.136719 151.605469 185.558594 143.988281 191.074219 138.472656 C 196.59375 132.949219 204.210938 129.53125 212.613281 129.53125 L 298.5625 129.53125 C 299.945312 129.53125 300.878906 130.175781 301.417969 130.714844 C 301.957031 131.253906 302.601562 132.1875 302.601562 133.570312 L 302.601562 219.519531 C 302.601562 227.65625 299.429688 235.3125 293.671875 241.070312 C 287.917969 246.824219 280.265625 249.992188 272.125 249.996094 L 234.074219 249.996094 L 198.230469 285.839844 L 272.125 285.839844 C 289.839844 285.839844 306.492188 278.941406 319.019531 266.414062 C 331.546875 253.890625 338.445312 237.234375 338.445312 219.515625 L 338.441406 133.570312 C 338.441406 122.917969 334.292969 112.898438 326.761719 105.371094 " fill-opacity="1" fill-rule="nonzero"/></g></g></g></svg>